<?xml version="1.0" encoding="UTF-8" standalone="no"?>
<svg
   xmlns:x="adobe:ns:meta/"
   xmlns:dc="http://purl.org/dc/elements/1.1/"
   xmlns:cc="http://creativecommons.org/ns#"
   xmlns:rdf="http://www.w3.org/1999/02/22-rdf-syntax-ns#"
   xmlns:svg="http://www.w3.org/2000/svg"
   xmlns="http://www.w3.org/2000/svg"
   xmlns:sodipodi="http://sodipodi.sourceforge.net/DTD/sodipodi-0.dtd"
   xmlns:inkscape="http://www.inkscape.org/namespaces/inkscape"
   id="_28æ³µç«™1ç»„"
   data-name="28æ³µç«™1ç»„"
   width="1144"
   height="674"
   viewBox="0 0 1144 674"
   version="1.1"
   sodipodi:docname="28-1.svg"
   inkscape:version="0.92.2 (5c3e80d, 2017-08-06)">
  <sodipodi:namedview
     pagecolor="#ffffff"
     bordercolor="#666666"
     borderopacity="1"
     objecttolerance="10"
     gridtolerance="10"
     guidetolerance="10"
     inkscape:pageopacity="0"
     inkscape:pageshadow="2"
     inkscape:window-width="1920"
     inkscape:window-height="1012"
     id="namedview113"
     showgrid="false"
     inkscape:zoom="1.5760013"
     inkscape:cx="417.8582"
     inkscape:cy="454.73103"
     inkscape:window-x="-8"
     inkscape:window-y="-8"
     inkscape:window-maximized="1"
     inkscape:current-layer="_28æ³µç«™1ç»„" />
  <metadata
     id="metadata2">
<?xpacket begin="ÿ" id="W5M0MpCehiHzreSzNTczkc9d"?>    <x:xmpmeta
       x:xmptk="Adobe XMP Core 5.6-c138 79.159824, 2016/09/14-01:09:01        ">
      <metadata>
        <rdf:RDF>
          <rdf:Description
             rdf:about="" />
          <cc:Work
             rdf:about="">
            <dc:format>image/svg+xml</dc:format>
            <dc:type
               rdf:resource="http://purl.org/dc/dcmitype/StillImage" />
          </cc:Work>
        </rdf:RDF>
      </metadata>
    </x:xmpmeta>
<?xpacket end="w"?>  </metadata>
  <defs
     id="defs6">
    <style
       id="style4">
      .cls-1 {
        fill: #facc17;
      }

      .cls-1, .cls-10, .cls-11, .cls-2, .cls-3, .cls-4, .cls-5, .cls-8 {
        fill-rule: evenodd;
      }

      .cls-2 {
        fill: #00e099;
      }

      .cls-3 {
        fill: #f04864;
      }

      .cls-4 {
        fill: #5b83e1;
      }

      .cls-5 {
        fill: #fa607e;
      }

      .cls-6, .cls-7, .cls-9 {
        font-size: 14px;
        font-family: PingFang SC;
      }

      .cls-6 {
        fill: #fff;
      }

      .cls-7 {
        fill: #fefefe;
      }

      .cls-8 {
        fill: #5085c6;
      }

      .cls-9 {
        fill: #a3cff6;
      }

      .cls-10 {
        fill: #f0f0f0;
      }

      .cls-11 {
        fill: #2c8cf9;
      }
    </style>
  </defs>
  <rect
     id="rect3804"
     width="1296.2245"
     height="754.06921"
     x="-6.0476796e-006"
     y="-4.7698455"
     style="display:none" />
  <g
     id="ç»„_852"
     data-name="ç»„ 852">
    <path
       id="s2"
       data-name="æ¤­åœ† 4543"
       class="cls-1"
       d="m 2093,3480 h -14 v -20.4 A 29.5,29.5 0 0 1 2034.04,3436 H 2034 v -45 h 14 v 18.4 a 29.5,29.5 0 0 1 45,25.1 c 0,0.17 -0.01,0.33 -0.01,0.5 h 0.01 z m -29.5,-60.5 a 15,15 0 1 0 15,15 15.005,15.005 0 0 0 -15,-15 z"
       transform="translate(-1287,-3188)"
       inkscape:connector-curvature="0"
       style="fill:#fa607e;fill-opacity:1;fill-rule:evenodd"
       inkscape:label="#æ¤­åœ†_4543" />
    <path
       id="s4"
       data-name="æ¤­åœ† 4543 æ‹·è´"
       class="cls-2"
       d="m 2052,3705 h -14 v -20.4 A 29.5,29.5 0 0 1 1993.04,3661 H 1993 v -45 h 14 v 18.4 a 29.5,29.5 0 0 1 45,25.1 c 0,0.17 -0.01,0.33 -0.01,0.5 h 0.01 z m -29.5,-60.5 a 15,15 0 1 0 15,15 15.005,15.005 0 0 0 -15,-15 z"
       transform="translate(-1287,-3188)"
       inkscape:connector-curvature="0"
       style="fill:#fa607e;fill-opacity:1;fill-rule:evenodd"
       inkscape:label="#æ¤­åœ†_4543_æ‹·è´" />
    <path
       id="s5"
       data-name="æ¤­åœ† 4543 æ‹·è´ 3"
       class="cls-2"
       d="m 1632,3713 h -14 v -20.4 A 29.5,29.5 0 0 1 1573.04,3669 H 1573 v -45 h 14 v 18.4 a 29.5,29.5 0 0 1 45,25.1 c 0,0.17 -0.01,0.33 -0.01,0.5 h 0.01 z m -29.5,-60.5 a 15,15 0 1 0 15,15 15.005,15.005 0 0 0 -15,-15 z"
       transform="translate(-1287,-3188)"
       inkscape:connector-curvature="0"
       style="fill:#fa607e;fill-opacity:1;fill-rule:evenodd"
       inkscape:label="#æ¤­åœ†_4543_æ‹·è´_3" />
    <path
       id="s1"
       data-name="æ¤­åœ† 4543 æ‹·è´ 2"
       class="cls-3"
       d="m 1666,3480 h -14 v -20.4 A 29.5,29.5 0 0 1 1607.04,3436 H 1607 v -45 h 14 v 18.4 a 29.5,29.5 0 0 1 45,25.1 c 0,0.17 -0.01,0.33 -0.01,0.5 h 0.01 z m -29.5,-60.5 a 15,15 0 1 0 15,15 15.005,15.005 0 0 0 -15,-15 z"
       transform="translate(-1287,-3188)"
       inkscape:connector-curvature="0"
       style="display:inline;fill:#fa607e;fill-opacity:1;fill-rule:evenodd"
       inkscape:label="#æ¤­åœ†_4543_æ‹·è´_2" />
    <path
       id="çŸ©å½¢_4546_æ‹·è´_3"
       data-name="çŸ©å½¢ 4546 æ‹·è´ 3"
       class="cls-4"
       d="m 2427,3562 v -28 h 4 v 28 z m -305,-284 v 14 h 56 v 34 h -4 v -30 h -52 v 10 h -80 v 85 h -4 v -85 h -422 v 85 h -4 v -85 h -47 v -39 h -254 v -4 h 254 v -12 h 557 v 12 h 299 v 4 h -299 z m -4,-23 h -549 v 23 h 549 z m 0,27 h -549 v 20 h 549 z m -705,512 v -4 h 210 v -77 h 4 v 77 h 416 v -85 h 4 v 85 h 270 v 38 h 51 v 33 h -4 v -29 h -47 v 13 h -904 v -10 h -117 v -4 h 117 v -25 h -117 v -4 h 117 z m 4,47 h 896 v -21 h -896 z m 0,-25 h 896 v -22 h -896 z m 867,-181 h -4 v -86 h -278 v 67 h -4 v -67 h -416 v 75 h -4 v -75 h -165 v 67 h -4 v -71 h 248 v -65 h 4 v 65 h 423 v -65 h 4 v 65 h 328 v -11 h 4 v 28 h -4 v -13 h -132 z"
       transform="translate(-1287,-3188)"
       inkscape:connector-curvature="0"
       style="fill:#5b83e1;fill-rule:evenodd" />
    <g
       id="ç»„_853"
       data-name="ç»„ 853">
      <path
         id="çŸ©å½¢_4548"
         data-name="çŸ©å½¢ 4548"
         class="cls-5"
         d="m 2265,3195 h 122 v 61 h -122 z m 2,28 h 118 v 31 h -118 z m -2,0 h 122 v 2 h -122 z m 69,1 h 2 v 32 h -2 z"
         transform="translate(-1287,-3188)"
         inkscape:connector-curvature="0"
         style="fill:#fa607e;fill-rule:evenodd" />
      <text
         id="p4"
         data-name="0.000"
         class="cls-6"
         x="996.737"
         y="57.108002"
         style="font-size:14px;font-family:'PingFang SC';fill:#ffffff"
         inkscape:label="#_0.000">0.000</text>
      <text
         id="m3_h"
         data-name="m3/h"
         class="cls-6"
         x="1056.027"
         y="56.846001"
         style="font-size:14px;font-family:'PingFang SC';fill:#ffffff">m3/h</text>
      <text
         id="äºŒå¹²çº¿è¿›æ°´æµé‡"
         class="cls-6"
         x="989.61902"
         y="26.524"
         style="font-size:14px;font-family:'PingFang SC';fill:#ffffff">äºŒå¹²çº¿è¿›æ°´æµé‡</text>
    </g>
    <g
       id="ç»„_853-2"
       data-name="ç»„ 853">
      <path
         id="çŸ©å½¢_4548-2"
         data-name="çŸ©å½¢ 4548"
         class="cls-5"
         d="m 2265,3279 h 122 v 61 h -122 z m 2,28 h 118 v 31 h -118 z m -2,0 h 122 v 2 h -122 z m 69,1 h 2 v 32 h -2 z"
         transform="translate(-1287,-3188)"
         inkscape:connector-curvature="0"
         style="fill:#fa607e;fill-rule:evenodd" />
      <text
         id="p5"
         data-name="0.000"
         class="cls-7"
         x="996.737"
         y="141.10699"
         style="font-size:14px;font-family:'PingFang SC';fill:#fefefe"
         inkscape:label="#_0.000-2">0.000</text>
      <text
         id="MPa"
         class="cls-6"
         x="1056.027"
         y="140.845"
         style="font-size:14px;font-family:'PingFang SC';fill:#ffffff">MPa</text>
      <text
         id="äºŒå¹²çº¿è¿›æ°´å‹åŠ›"
         class="cls-6"
         x="989.61902"
         y="110.527"
         style="font-size:14px;font-family:'PingFang SC';fill:#ffffff">äºŒå¹²çº¿è¿›æ°´å‹åŠ›</text>
    </g>
    <g
       id="ç»„_853-3"
       data-name="ç»„ 853">
      <path
         id="çŸ©å½¢_4548-3"
         data-name="çŸ©å½¢ 4548"
         class="cls-8"
         d="m 1403,3713 h 122 v 61 h -122 z m 2,2 h 118 v 57 h -118 z m -2,26 h 122 v 2 h -122 z m 69,1 h 2 v 32 h -2 z"
         transform="translate(-1287,-3188)"
         inkscape:connector-curvature="0"
         style="fill:#5085c6;fill-rule:evenodd" />
      <text
         id="_0.000-3"
         data-name="0.000"
         class="cls-7"
         x="134.73801"
         y="575.10699"
         style="font-size:14px;font-family:'PingFang SC';fill:#fefefe">0.000</text>
      <text
         id="MPa-2"
         data-name="MPa"
         class="cls-9"
         x="199.02901"
         y="574.84497"
         style="font-size:14px;font-family:'PingFang SC';fill:#a3cff6">MPa</text>
      <text
         id="å››å¹²çº¿è¿›æ°´å‹åŠ›"
         class="cls-9"
         x="127.621"
         y="544.52802"
         style="font-size:14px;font-family:'PingFang SC';fill:#a3cff6">å››å¹²çº¿è¿›æ°´å‹åŠ›</text>
    </g>
    <g
       id="ç»„_853-4"
       data-name="ç»„ 853">
      <path
         id="çŸ©å½¢_4548-4"
         data-name="çŸ©å½¢ 4548"
         class="cls-8"
         d="m 1412,3277 h 122 v 61 h -122 z m 2,2 h 118 v 57 h -118 z m -2,26 h 122 v 2 h -122 z m 69,1 h 2 v 32 h -2 z"
         transform="translate(-1287,-3188)"
         inkscape:connector-curvature="0"
         style="fill:#5085c6;fill-rule:evenodd" />
      <text
         id="p3"
         data-name="0.000"
         class="cls-7"
         x="143.746"
         y="139.11"
         style="font-size:14px;font-family:'PingFang SC';fill:#fefefe"
         inkscape:label="#_0.000-4">0.000</text>
      <text
         id="MPa-3"
         data-name="MPa"
         class="cls-9"
         x="208.02299"
         y="138.84399"
         style="font-size:14px;font-family:'PingFang SC';fill:#a3cff6">MPa</text>
      <text
         id="ä¸‰å¹²çº¿è¿›æ°´å‹åŠ›"
         class="cls-9"
         x="136.627"
         y="108.526"
         style="font-size:14px;font-family:'PingFang SC';fill:#a3cff6">ä¸‰å¹²çº¿è¿›æ°´å‹åŠ›</text>
    </g>
    <g
       id="ç»„_853-5"
       data-name="ç»„ 853">
      <path
         id="çŸ©å½¢_4548-5"
         data-name="çŸ©å½¢ 4548"
         class="cls-8"
         d="m 1402,3644 h 122 v 61 h -122 z m 2,2 h 118 v 57 h -118 z m -2,26 h 122 v 2 h -122 z m 69,1 h 2 v 32 h -2 z"
         transform="translate(-1287,-3188)"
         inkscape:connector-curvature="0"
         style="fill:#5085c6;fill-rule:evenodd" />
      <text
         id="p11"
         data-name="0.000"
         class="cls-7"
         x="133.743"
         y="506.10901"
         style="font-size:14px;font-family:'PingFang SC';fill:#fefefe"
         inkscape:label="#_0.000-5">0.000</text>
      <text
         id="m3_h-2"
         data-name="m3/h"
         class="cls-9"
         x="198.02"
         y="505.84299"
         style="font-size:14px;font-family:'PingFang SC';fill:#a3cff6">m3/h</text>
      <text
         id="å››å¹²çº¿è¿›æ°´æµé‡"
         class="cls-9"
         x="126.622"
         y="475.526"
         style="font-size:14px;font-family:'PingFang SC';fill:#a3cff6">å››å¹²çº¿è¿›æ°´æµé‡</text>
    </g>
    <g
       id="ç»„_853-6"
       data-name="ç»„ 853">
      <path
         id="çŸ©å½¢_4548-6"
         data-name="çŸ©å½¢ 4548"
         class="cls-8"
         d="m 1412,3188 h 122 v 61 h -122 z m 2,2 h 118 v 57 h -118 z m -2,26 h 122 v 2 h -122 z m 69,1 h 2 v 32 h -2 z"
         transform="translate(-1287,-3188)"
         inkscape:connector-curvature="0"
         style="fill:#5085c6;fill-rule:evenodd" />
      <text
         id="p2"
         data-name="0.000"
         class="cls-7"
         x="143.746"
         y="50.106998"
         style="font-size:14px;font-family:'PingFang SC';fill:#fefefe"
         inkscape:label="#_0.000-6">0.000</text>
      <text
         id="m3_h-3"
         data-name="m3/h"
         class="cls-9"
         x="203.021"
         y="49.846001"
         style="font-size:14px;font-family:'PingFang SC';fill:#a3cff6">m3/h</text>
      <text
         id="ä¸‰å¹²çº¿è¿›æ°´æµé‡"
         class="cls-9"
         x="136.627"
         y="19.524"
         style="font-size:14px;font-family:'PingFang SC';fill:#a3cff6">ä¸‰å¹²çº¿è¿›æ°´æµé‡</text>
    </g>
    <g
       id="ç»„_853-7"
       data-name="ç»„ 853">
      <path
         id="çŸ©å½¢_4548-7"
         data-name="çŸ©å½¢ 4548"
         class="cls-8"
         d="m 1888,3413 h 122 v 61 h -122 z m 2,2 h 118 v 57 h -118 z m -2,26 h 122 v 2 h -122 z m 69,1 h 2 v 32 h -2 z"
         transform="translate(-1287,-3188)"
         inkscape:connector-curvature="0"
         style="fill:#5085c6;fill-rule:evenodd" />
      <text
         id="p8"
         data-name="0.000"
         class="cls-7"
         x="620.737"
         y="275.108"
         style="font-size:14px;font-family:'PingFang SC';fill:#fefefe"
         inkscape:label="#_0.000-7">0.000</text>
      <text
         id="A"
         class="cls-9"
         x="690.02899"
         y="274.84299"
         style="font-size:14px;font-family:'PingFang SC';fill:#a3cff6">A</text>
      <text
         id="_102æ°´æ³µç”µæµ"
         data-name="102æ°´æ³µç”µæµ"
         class="cls-9"
         x="616.61603"
         y="244.52499"
         style="font-size:14px;font-family:'PingFang SC';fill:#a3cff6">102æ°´æ³µç”µæµ</text>
    </g>
    <g
       id="ç»„_853-8"
       data-name="ç»„ 853">
      <path
         id="çŸ©å½¢_4548-8"
         data-name="çŸ©å½¢ 4548"
         class="cls-8"
         d="m 1701,3413 h 122 v 61 h -122 z m 2,2 h 118 v 57 h -118 z m -2,26 h 122 v 2 h -122 z m 69,1 h 2 v 32 h -2 z"
         transform="translate(-1287,-3188)"
         inkscape:connector-curvature="0"
         style="fill:#5085c6;fill-rule:evenodd" />
      <text
         id="p7"
         data-name="0.000"
         class="cls-7"
         x="430.74701"
         y="275.108"
         style="font-size:14px;font-family:'PingFang SC';fill:#fefefe"
         inkscape:label="#_0.000-8">0.000</text>
      <text
         id="A-2"
         data-name="A"
         class="cls-9"
         x="503.02301"
         y="274.84299"
         style="font-size:14px;font-family:'PingFang SC';fill:#a3cff6">A</text>
      <text
         id="_101æ°´æ³µç”µæµ"
         data-name="101æ°´æ³µç”µæµ"
         class="cls-9"
         x="431.62799"
         y="244.52499"
         style="font-size:14px;font-family:'PingFang SC';fill:#a3cff6">101æ°´æ³µç”µæµ</text>
    </g>
    <g
       id="ç»„_853-9"
       data-name="ç»„ 853">
      <path
         id="çŸ©å½¢_4548-9"
         data-name="çŸ©å½¢ 4548"
         class="cls-8"
         d="m 1659,3652 h 122 v 61 h -122 z m 2,2 h 118 v 57 h -118 z m -2,26 h 122 v 2 h -122 z m 69,1 h 2 v 32 h -2 z"
         transform="translate(-1287,-3188)"
         inkscape:connector-curvature="0"
         style="fill:#5085c6;fill-rule:evenodd" />
      <text
         id="p10"
         data-name="0.000"
         class="cls-7"
         x="388.74799"
         y="514.10999"
         style="font-size:14px;font-family:'PingFang SC';fill:#fefefe"
         inkscape:label="#_0.000-9">0.000</text>
      <text
         id="A-3"
         data-name="A"
         class="cls-9"
         x="461.02399"
         y="513.84399"
         style="font-size:14px;font-family:'PingFang SC';fill:#a3cff6">A</text>
      <text
         id="_104æ°´æ³µç”µæµ"
         data-name="104æ°´æ³µç”µæµ"
         class="cls-9"
         x="383.61899"
         y="483.526"
         style="font-size:14px;font-family:'PingFang SC';fill:#a3cff6">104æ°´æ³µç”µæµ</text>
    </g>
    <g
       id="ç»„_853-10"
       data-name="ç»„ 853">
      path
         id=çŸ©å½¢_4548-10
         data-name=çŸ©å½¢ 4548
         class=cls-8
         d=m 1863,3652 h 122 v 61 h -122 z m 2,2 h 118 v 57 h -118 z m -2,26 h 122 v 2 h -122 z m 69,1 h 2 v 32 h -2 z
         transform=translate(-1287,-3188)
         inkscape:connector-curvature=0
         style=fill:#5085c6;fill-rule:evenodd /
      <text
   id="p9"
   data-name="0.000"
   class="cls-7"
   x="592.74701"
   y="514.10999"
   style="font-size:14px;font-family:'PingFang SC';fill:#fefefe"
   inkscape:label="#_0.000-10">0.000</text>
<text
   id="A-4"
   data-name="A"
   class="cls-9"
   x="665.02301"
   y="513.84399"
   style="font-size:14px;font-family:'PingFang SC';fill:#a3cff6">A</text>
<text
   id="_103æ°´æ³µç”µæµ"
   data-name="103æ°´æ³µç”µæµ"
   class="cls-9"
   x="599.62299"
   y="483.526"
   style="font-size:14px;font-family:'PingFang SC';fill:#a3cff6">103æ°´æ³µç”µæµ</text>
</g>
    <g
       id="ç»„_854"
       data-name="ç»„ 854">
      <text
         id="æº¢æµç®¡"
         class="cls-9"
         x="841.71399"
         y="96.303001"
         style="font-size:14px;font-family:'PingFang SC';fill:#a3cff6">æº¢æµç®¡</text>
      <text
         id="p6"
         data-name="0.000 m3"
         class="cls-9"
         x="873.71002"
         y="57.303001"
         style="font-size:14px;font-family:'PingFang SC';fill:#a3cff6"
         inkscape:label="#_0.000_m3">0.000</text>
      <text
         id="p13"
         data-name="0.000 m3 æ‹·è´"
         class="cls-9"
         x="9.717"
         y="565.29999"
         style="font-size:14px;font-family:'PingFang SC';fill:#a3cff6"
         inkscape:label="#_0.000_m3_æ‹·è´">0.000</text>
      <text
         id="p1"
         data-name="0.000 m3 æ‹·è´ 2"
         class="cls-9"
         x="9.717"
         y="14.301"
         style="font-size:14px;font-family:'PingFang SC';fill:#a3cff6"
         inkscape:label="#_0.000_m3_æ‹·è´_2">0.000</text>
      <text
         id="Dä¸‰å¹²çº¿è¿›æ°´ç®¡"
         class="cls-9"
         x="7.717"
         y="66.300003"
         style="font-size:14px;font-family:'PingFang SC';fill:#a3cff6">ä¸‰å¹²çº¿è¿›æ°´ç®¡</text>
      <text
         id="D820"
         class="cls-9"
         x="52.716"
         y="103.303"
         style="font-size:14px;font-family:'PingFang SC';fill:#a3cff6">D820</text>
      <text
         id="D820å››å¹²çº¿è¿›æ°´ç®¡"
         class="cls-9"
         x="0.71700001"
         y="605.29999"
         style="font-size:14px;font-family:'PingFang SC';fill:#a3cff6">D820å››å¹²çº¿è¿›æ°´ç®¡</text>
      <text
         id="D820å››å¹²çº¿è¿›æ°´ç®¡-2"
         data-name="D820å››å¹²çº¿è¿›æ°´ç®¡"
         class="cls-9"
         x="0.71700001"
         y="637.29999"
         style="font-size:14px;font-family:'PingFang SC';fill:#a3cff6">D820å››å¹²çº¿è¿›æ°´ç®¡</text>
      <text
         id="æº¢æµç®¡_æ‹·è´"
         data-name="æº¢æµç®¡ æ‹·è´"
         class="cls-9"
         x="1039.7159"
         y="627.302"
         style="font-size:14px;font-family:'PingFang SC';fill:#a3cff6">æº¢æµç®¡</text>
      <text
         id="D426"
         class="cls-9"
         x="841.71399"
         y="126.363"
         style="font-size:14px;font-family:'PingFang SC';fill:#a3cff6">D426</text>
      <text
         id="D820-2"
         data-name="D820"
         class="cls-9"
         x="1081.999"
         y="346"
         style="font-size:14px;font-family:'PingFang SC';fill:#a3cff6">D820</text>
      <text
         id="D426-2"
         data-name="D426"
         class="cls-9"
         x="1032.996"
         y="672.99902"
         style="font-size:14px;font-family:'PingFang SC';fill:#a3cff6">D426</text>
      <text
         id="D530"
         class="cls-9"
         transform="rotate(90,320.0175,468.6435)"
         style="font-size:14px;font-family:'PingFang SC';fill:#a3cff6">D530</text>
      <text
         id="D530_æ‹·è´"
         data-name="D530 æ‹·è´"
         class="cls-9"
         transform="rotate(90,107.018,255.644)"
         style="font-size:14px;font-family:'PingFang SC';fill:#a3cff6">D530</text>
      <text
         id="_102"
         data-name="102"
         class="cls-9"
         x="651.17133"
         y="302.02783"
         style="font-size:14px;font-family:'PingFang SC';fill:#a3cff6">102</text>
      <text
         id="_103_v"
         data-name="103 v"
         class="cls-9"
         x="777.72101"
         y="399.36499"
         style="font-size:14px;font-family:'PingFang SC';fill:#a3cff6">103 v</text>
      <text
         id="_104_v"
         data-name="104 v"
         class="cls-9"
         x="349.71899"
         y="399.36499"
         style="font-size:14px;font-family:'PingFang SC';fill:#a3cff6">104 v</text>
      <text
         id="_103"
         data-name="103"
         class="cls-9"
         x="636.08929"
         y="545.2453"
         style="font-size:14px;font-family:'PingFang SC';fill:#a3cff6">103</text>
      <text
         id="_104"
         data-name="104"
         class="cls-9"
         x="426.314"
         y="547.03998"
         style="font-size:14px;font-family:'PingFang SC';fill:#a3cff6">104</text>
      <text
         id="_101"
         data-name="101"
         class="cls-9"
         x="460.98352"
         y="303.82251"
         style="font-size:14px;font-family:'PingFang SC';fill:#a3cff6">101</text>
      <text
         id="D529"
         class="cls-9"
         transform="rotate(90,254.8035,561.3215)"
         style="font-size:14px;font-family:'PingFang SC';fill:#a3cff6">D529</text>
      <text
         id="D820-3"
         data-name="D820"
         class="cls-9"
         transform="rotate(90,287.301,724.823)"
         style="font-size:14px;font-family:'PingFang SC';fill:#a3cff6">D820</text>
      <text
         id="D529_æ‹·è´_2"
         data-name="D529 æ‹·è´ 2"
         class="cls-9"
         transform="rotate(90,151.7995,529.3215)"
         style="font-size:14px;font-family:'PingFang SC';fill:#a3cff6">D529</text>
      <text
         id="D529_æ‹·è´_3"
         data-name="D529 æ‹·è´ 3"
         class="cls-9"
         transform="rotate(90,-60.7025,316.8195)"
         style="font-size:14px;font-family:'PingFang SC';fill:#a3cff6">D529</text>
      <text
         id="D630"
         class="cls-9"
         transform="rotate(90,-99.7015,457.8175)"
         style="font-size:14px;font-family:'PingFang SC';fill:#a3cff6">D630</text>
      <text
         id="D630_æ‹·è´"
         data-name="D630 æ‹·è´"
         class="cls-9"
         transform="rotate(90,115.7985,673.3175)"
         style="font-size:14px;font-family:'PingFang SC';fill:#a3cff6">D630</text>
      <text
         id="D920"
         class="cls-9"
         transform="rotate(90,-152.198,254.321)"
         style="font-size:14px;font-family:'PingFang SC';fill:#a3cff6">D920</text>
      <text
         id="D529_æ‹·è´"
         data-name="D529 æ‹·è´"
         class="cls-9"
         transform="rotate(90,47.303,353.821)"
         style="font-size:14px;font-family:'PingFang SC';fill:#a3cff6">D529</text>
    </g>
    <path
       id="çŸ©å½¢_4548-9-3"
       data-name="çŸ©å½¢ 4548"
       class="cls-8"
       d="m 577.01078,464.03143 h 122 v 61 h -122 z m 2,2 h 118 v 57 h -118 z m -2,26 h 122 v 2 h -122 z m 69,1 h 2 v 32 h -2 z"
       inkscape:connector-curvature="0"
       style="fill:#5085c6;fill-rule:evenodd" />
  </g>
  <g
     id="ç»„_855"
     data-name="ç»„ 855">
    <path
       id="å¤šè¾¹å½¢_4645"
       data-name="å¤šè¾¹å½¢ 4645"
       class="cls-10"
       d="m 1476,3547 -10.01,7 v -14.01 z m 0,0 10.01,-7 v 14.01 z"
       transform="translate(-1287,-3188)"
       inkscape:connector-curvature="0"
       style="fill:#f0f0f0;fill-rule:evenodd" />
    <path
       id="å¤šè¾¹å½¢_4645_æ‹·è´_4"
       data-name="å¤šè¾¹å½¢ 4645 æ‹·è´ 4"
       class="cls-10"
       d="m 1789,3547 -10.01,7 v -14.01 z m 0,0 10.01,-7 v 14.01 z"
       transform="translate(-1287,-3188)"
       inkscape:connector-curvature="0"
       style="fill:#f0f0f0;fill-rule:evenodd" />
    <path
       id="å¤šè¾¹å½¢_4645_æ‹·è´_3"
       data-name="å¤šè¾¹å½¢ 4645 æ‹·è´ 3"
       class="cls-10"
       d="m 1625,3756 -7,-10.01 h 14.01 z m 0,0 7,10.01 h -14.01 z"
       transform="translate(-1287,-3188)"
       inkscape:connector-curvature="0"
       style="fill:#f0f0f0;fill-rule:evenodd" />
    <path
       id="å¤šè¾¹å½¢_4645_æ‹·è´_7"
       data-name="å¤šè¾¹å½¢ 4645 æ‹·è´ 7"
       class="cls-10"
       d="m 2045,3756 -7,-10.01 h 14.01 z m 0,0 7,10.01 h -14.01 z"
       transform="translate(-1287,-3188)"
       inkscape:connector-curvature="0"
       style="fill:#f0f0f0;fill-rule:evenodd" />
    <path
       id="å¤šè¾¹å½¢_4645_æ‹·è´_8"
       data-name="å¤šè¾¹å½¢ 4645 æ‹·è´ 8"
       class="cls-10"
       d="m 2282,3590 -7,-10.01 h 14.01 z m 0,0 7,10.01 h -14.01 z"
       transform="translate(-1287,-3188)"
       inkscape:connector-curvature="0"
       style="fill:#f0f0f0;fill-rule:evenodd" />
    <path
       id="å¤šè¾¹å½¢_4645_æ‹·è´"
       data-name="å¤šè¾¹å½¢ 4645 æ‹·è´"
       class="cls-10"
       d="m 1614,3344 -7,-10.01 h 14.01 z m 0,0 7,10.01 h -14.01 z"
       transform="translate(-1287,-3188)"
       inkscape:connector-curvature="0"
       style="fill:#f0f0f0;fill-rule:evenodd" />
    <path
       id="å¤šè¾¹å½¢_4645_æ‹·è´_5"
       data-name="å¤šè¾¹å½¢ 4645 æ‹·è´ 5"
       class="cls-10"
       d="m 1659,3516 -7,-10.01 h 14.01 z m 0,0 7,10.01 h -14.01 z"
       transform="translate(-1287,-3188)"
       inkscape:connector-curvature="0"
       style="fill:#f0f0f0;fill-rule:evenodd" />
    <path
       id="å¤šè¾¹å½¢_4645_æ‹·è´_6"
       data-name="å¤šè¾¹å½¢ 4645 æ‹·è´ 6"
       class="cls-10"
       d="m 2086,3516 -7,-10.01 h 14.01 z m 0,0 7,10.01 h -14.01 z"
       transform="translate(-1287,-3188)"
       inkscape:connector-curvature="0"
       style="fill:#f0f0f0;fill-rule:evenodd" />
    <path
       id="å¤šè¾¹å½¢_4645_æ‹·è´_2"
       data-name="å¤šè¾¹å½¢ 4645 æ‹·è´ 2"
       class="cls-10"
       d="m 2040,3344 -7,-10.01 h 14.01 z m 0,0 7,10.01 h -14.01 z"
       transform="translate(-1287,-3188)"
       inkscape:connector-curvature="0"
       style="fill:#f0f0f0;fill-rule:evenodd" />
  </g>
  <g
     id="ç»„_856"
     data-name="ç»„ 856">
    <g
       id="s3"
       inkscape:label="#é˜€é—¨"
       style="fill:#fa607e;fill-opacity:1">
      <path
         id="we"
         data-name="å¤šè¾¹å½¢ 4635 æ‹·è´"
         class="cls-11"
         d="m 2025,3572 h 25 v 23 h -25 z m 2,3 h 21 v 2 h -21 z m 0,5 h 21 v 2 h -21 z m 0,6 h 21 v 2 h -21 z m 0,5 h 21 v 2 h -21 z m -11.99,-7.54 10.49,-11.47 1.36,1.49 -10.49,11.47 z m 1.78,-1.08 10.22,11.18 -1.33,1.45 -10.22,-11.18 z M 2000,3582 h 14 v 3 h -14 z m 14,-8 h 3 v 19 h -3 z"
         transform="translate(-1287,-3188)"
         inkscape:connector-curvature="0"
         style="fill:#fa607e;fill-opacity:1;fill-rule:evenodd"
         inkscape:label="#å¤šè¾¹å½¢_4635_æ‹·è´" />
      <path
         id="å¤šè¾¹å½¢_4635"
         data-name="å¤šè¾¹å½¢ 4635"
         class="cls-2"
         d="m 2001,3584 -7.01,-12.01 h 14.02 z"
         transform="translate(-1287,-3188)"
         inkscape:connector-curvature="0"
         style="fill:#fa607e;fill-opacity:1;fill-rule:evenodd" />
      <path
         id="å¤šè¾¹å½¢_4635_æ‹·è´_3"
         data-name="å¤šè¾¹å½¢ 4635 æ‹·è´ 3"
         class="cls-5"
         d="m 2001,3583 7.01,12.01 h -14.02 z"
         transform="translate(-1287,-3188)"
         inkscape:connector-curvature="0"
         style="fill:#fa607e;fill-opacity:1;fill-rule:evenodd" />
    </g>
    <g
       id="s6"
       data-name="é˜€é—¨"
       inkscape:label="#é˜€é—¨-2"
       style="fill:#fa607e;fill-opacity:1">
      <path
         id="ll"
         data-name="å¤šè¾¹å½¢ 4635 æ‹·è´"
         class="cls-11"
         d="m 1604,3572 h 25 v 23 h -25 z m 2,3 h 21 v 2 h -21 z m 0,5 h 21 v 2 h -21 z m 0,6 h 21 v 2 h -21 z m 0,5 h 21 v 2 h -21 z m -11.99,-7.54 10.49,-11.47 1.36,1.49 -10.49,11.47 z m 1.78,-1.08 10.22,11.18 -1.33,1.45 -10.22,-11.18 z M 1579,3582 h 14 v 3 h -14 z m 14,-8 h 3 v 19 h -3 z"
         transform="translate(-1287,-3188)"
         inkscape:connector-curvature="0"
         style="fill:#fa607e;fill-opacity:1;fill-rule:evenodd"
         inkscape:label="#å¤šè¾¹å½¢_4635_æ‹·è´-2" />
      <path
         id="å¤šè¾¹å½¢_4635-2"
         data-name="å¤šè¾¹å½¢ 4635"
         class="cls-5"
         d="m 1580,3584 -7.02,-12.01 h 14.03 z"
         transform="translate(-1287,-3188)"
         inkscape:connector-curvature="0"
         style="fill:#fa607e;fill-opacity:1;fill-rule:evenodd" />
      <path
         id="å¤šè¾¹å½¢_4635_æ‹·è´_2"
         data-name="å¤šè¾¹å½¢ 4635 æ‹·è´ 2"
         class="cls-5"
         d="m 1580,3583 7.01,12.01 h -14.02 z"
         transform="translate(-1287,-3188)"
         inkscape:connector-curvature="0"
         style="fill:#fa607e;fill-opacity:1;fill-rule:evenodd" />
    </g>
  </g>
  <text
     id="p1-5"
     data-name="0.000 m3 æ‹·è´ 2"
     class="cls-9"
     x="96.04332"
     y="13.480774"
     style="font-size:14px;font-family:'PingFang SC';fill:#a3cff6"
     inkscape:label="#_0.000_m3_æ‹·è´_2">m3</text>
  <text
     id="p6-6"
     data-name="0.000 m3"
     class="cls-9"
     x="939.17767"
     y="58.078316"
     style="font-size:14px;font-family:'PingFang SC';fill:#a3cff6"
     inkscape:label="#_0.000_m3">m3</text>
  <text
     id="p1-5-8"
     data-name="0.000 m3 æ‹·è´ 2"
     class="cls-9"
     x="80.529175"
     y="565.05383"
     style="font-size:14px;font-family:'PingFang SC';fill:#a3cff6"
     inkscape:label="#_0.000_m3_æ‹·è´_2">m3</text>
</svg>
