<svg id="_38泵站1-3号水泵电机" data-name="38泵站1-3号水泵电机" xmlns="http://www.w3.org/2000/svg" width="1231" height="705" viewBox="0 0 1231 705">
  <metadata><?xpacket begin="﻿" id="W5M0MpCehiHzreSzNTczkc9d"?>
<x:xmpmeta xmlns:x="adobe:ns:meta/" x:xmptk="Adobe XMP Core 5.6-c138 79.159824, 2016/09/14-01:09:01        ">
   <rdf:RDF xmlns:rdf="http://www.w3.org/1999/02/22-rdf-syntax-ns#">
      <rdf:Description rdf:about=""/>
   </rdf:RDF>
</x:xmpmeta>
                                                                                                    
                                                                                                    
                                                                                                    
                                                                                                    
                                                                                                    
                                                                                                    
                                                                                                    
                                                                                                    
                                                                                                    
                                                                                                    
                                                                                                    
                                                                                                    
                                                                                                    
                                                                                                    
                                                                                                    
                                                                                                    
                                                                                                    
                                                                                                    
                                                                                                    
                                                                                                    
                           
<?xpacket end="w"?></metadata>
<defs>
    <style>
      .cls-1 {
        fill: #fa607e;
      }

      .cls-1, .cls-2, .cls-3, .cls-4, .cls-5 {
        fill-rule: evenodd;
      }

      .cls-2 {
        fill: #5b83e1;
      }

      .cls-3 {
        fill: #f0f0f0;
      }

      .cls-4 {
        fill: #facc17;
      }

      .cls-5 {
        fill: #5085c6;
      }

      .cls-6 {
        font-size: 14px;
        fill: #fefefe;
      }

      .cls-10, .cls-6, .cls-7, .cls-9 {
        font-family: "PingFang SC";
      }

      .cls-7 {
        font-size: 14.004px;
      }

      .cls-7, .cls-9 {
        fill: #a3cff6;
      }

      .cls-8 {
        fill: #4f76c9;
        opacity: 0.3;
      }

      .cls-10, .cls-9 {
        font-size: 18px;
      }

      .cls-10 {
        fill: #f9fbfd;
      }
    </style>
  </defs>
  <g id="组_878" data-name="组 878">
    <g id="_38泵站1-3号水泵电机-2" data-name="38泵站1-3号水泵电机">
      <path id="椭圆_4543_拷贝_6" data-name="椭圆 4543 拷贝 6" class="cls-1" d="M2000.6,3293.91a29.5,29.5,0,0,1-25.1,45c-0.17,0-.33-0.01-0.5-0.02v0.02h-45v-14h20.4a29.507,29.507,0,0,1,23.6-44.97v-0.03h45v14h-18.4Zm-25.1.5a15,15,0,1,0,15,15A15,15,0,0,0,1975.5,3294.41Z" transform="translate(-1229 -3177)"/>
      <path id="矩形_4946" data-name="矩形 4946" class="cls-2" d="M2019,3288v-2h439v2H2019Zm-402.01,52.01L1602,3331.5l14.99-8.51V3331H1930v2H1616.99v7.01Z" transform="translate(-1229 -3177)"/>
      <path id="多边形_4645_拷贝_12" data-name="多边形 4645 拷贝 12" class="cls-3" d="M2327,3287l10-7v14.01Zm0,0-10.01,7v-14.01Z" transform="translate(-1229 -3177)"/>
      <path id="矩形_4855_拷贝_2" data-name="矩形 4855 拷贝 2" class="cls-4" d="M1774,3314.81v15.79l8-5.6v14.01l-10.01-7.01h0l-10,7v-14.01l9.01,6.31v-16.35A11.008,11.008,0,1,1,1774,3314.81Zm4.99-16.81h-2l-5,8.66L1767,3298h-2v12h2v-8l3.99,8h2l4-8v8h2v-12Z" transform="translate(-1229 -3177)"/>
      <g id="组_859" data-name="组 859">
        <g id="组_853" data-name="组 853">
          <path id="矩形_4944_拷贝_4" data-name="矩形 4944 拷贝 4" class="cls-5" d="M2036,3214h122v51H2036v-51Zm2,2h118v47H2038v-47Zm-2,21h121v2H2036v-2Zm68,0h2v28h-2v-28Z" transform="translate(-1229 -3177)"/>
          <text id="_0.000" data-name="0.000" class="cls-6" transform="translate(827.736 78.097)">0.000</text>
          <text id="MPa" class="cls-7" transform="translate(887.026 77.836)">MPa</text>
          <text id="_3_水泵入口压力" data-name="3#水泵入口压力" class="cls-7" transform="translate(823.616 53.526)">3#水泵入口压力</text>
        </g>
        <g id="组_853-2" data-name="组 853">
          <path id="矩形_4944_拷贝_4-2" data-name="矩形 4944 拷贝 4" class="cls-5" d="M1810,3245h122v51H1810v-51Zm2,2h118v47H1812v-47Zm-2,21h121v2H1810v-2Zm68,0h2v28h-2v-28Z" transform="translate(-1229 -3177)"/>
          <text id="_0.000-2" data-name="0.000" class="cls-6" transform="translate(601.743 109.1)">0.000</text>
          <text id="MPa-2" data-name="MPa" class="cls-7" transform="translate(661.019 108.835)">MPa</text>
          <text id="_3_水泵出口压力" data-name="3#水泵出口压力" class="cls-7" transform="translate(594.625 84.525)">3#水泵出口压力</text>
        </g>
        <g id="组_853-3" data-name="组 853">
          <path id="矩形_4944_拷贝_4-3" data-name="矩形 4944 拷贝 4" class="cls-5" d="M1582,3245h122v51H1582v-51Zm2,2h118v47H1584v-47Zm-2,21h121v2H1582v-2Zm68,0h2v28h-2v-28Z" transform="translate(-1229 -3177)"/>
          <text id="_0.000-3" data-name="0.000" class="cls-6" transform="translate(373.748 109.1)">0.000</text>
          <text id="_" data-name="%" class="cls-7" transform="translate(443.026 108.835)">%</text>
          <text id="_3_出水门开度" data-name="3#出水门开度" class="cls-7" transform="translate(369.627 84.525)">3#出水门开度</text>
        </g>
        <g id="组_853-4" data-name="组 853">
          <path id="矩形_4944_拷贝_4-4" data-name="矩形 4944 拷贝 4" class="cls-5" d="M2036,3309h122v51H2036v-51Zm2,2h118v47H2038v-47Zm-2,21h121v2H2036v-2Zm68,0h2v28h-2v-28Z" transform="translate(-1229 -3177)"/>
          <text id="_0.000-4" data-name="0.000" class="cls-6" transform="translate(827.736 173.099)">0.000</text>
          <text id="A" class="cls-7" transform="translate(897.028 172.834)">A</text>
          <text id="_3_电机电流" data-name="3#电机电流" class="cls-7" transform="translate(830.62 148.524)">3#电机电流</text>
        </g>
        <g id="组_853-5" data-name="组 853">
          <path id="矩形_4944_拷贝_4-5" data-name="矩形 4944 拷贝 4" class="cls-5" d="M2205,3177h122v51H2205v-51Zm2,2h118v47H2207v-47Zm-2,21h121v2H2205v-2Zm68,0h2v28h-2v-28Z" transform="translate(-1229 -3177)"/>
          <text id="_0.000-5" data-name="0.000" class="cls-6" transform="translate(996.74 41.099)">0.000</text>
          <text id="MPa-3" data-name="MPa" class="cls-7" transform="translate(1056.03 40.833)">MPa</text>
          <text id="出水总管压力表" class="cls-7" transform="translate(992.62 16.523)">出水总管压力表</text>
        </g>
        <g id="组_853-6" data-name="组 853">
          <path id="矩形_4944_拷贝_4-6" data-name="矩形 4944 拷贝 4" class="cls-5" d="M2338,3177h122v51H2338v-51Zm2,2h118v47H2340v-47Zm-2,21h121v2H2338v-2Zm68,0h2v28h-2v-28Z" transform="translate(-1229 -3177)"/>
          <text id="_0.000-6" data-name="0.000" class="cls-6" transform="translate(1129.741 41.099)">0.000</text>
          <text id="ug_m3" data-name="ug/m3" class="cls-7" transform="translate(1182.027 40.833)">ug/m3</text>
          <text id="二氧化氯泄漏监测" class="cls-7" transform="translate(1113.615 16.523)">二氧化氯泄漏监测</text>
        </g>
      </g>
    </g>
    <g id="_38泵站1-3号水泵电机-3" data-name="38泵站1-3号水泵电机">
      <path id="椭圆_4543_拷贝_6-2" data-name="椭圆 4543 拷贝 6" class="cls-1" d="M2000.6,3754.91a29.5,29.5,0,0,1-25.1,45c-0.17,0-.33-0.01-0.5-0.02v0.02h-45v-14h20.4a29.507,29.507,0,0,1,23.6-44.97v-0.03h45v14h-18.4Zm-25.1.5a15,15,0,1,0,15,15A15,15,0,0,0,1975.5,3755.41Z" transform="translate(-1229 -3177)"/>
      <path id="矩形_4946-2" data-name="矩形 4946" class="cls-2" d="M2019,3749v-2h439v2H2019Zm-402.01,52.01L1602,3792.5l14.99-8.51V3792H1930v2H1616.99v7.01Z" transform="translate(-1229 -3177)"/>
      <path id="多边形_4645_拷贝_12-2" data-name="多边形 4645 拷贝 12" class="cls-3" d="M2327,3748l10-7v14.01Zm0,0-10.01,7v-14.01Z" transform="translate(-1229 -3177)"/>
      <path id="多边形_4645_拷贝_14" data-name="多边形 4645 拷贝 14" class="cls-3" d="M1734,3793l10-7v14.01Zm0,0-10.01,7v-14.01Z" transform="translate(-1229 -3177)"/>
      <g id="组_859-2" data-name="组 859">
        <g id="组_853-7" data-name="组 853">
          <path id="矩形_4944_拷贝_4-7" data-name="矩形 4944 拷贝 4" class="cls-5" d="M2036,3831h122v51H2036v-51Zm2,2h118v47H2038v-47Zm-2,21h121v2H2036v-2Zm68,0h2v28h-2v-28Z" transform="translate(-1229 -3177)"/>
          <text id="_0.000-7" data-name="0.000" class="cls-6" transform="translate(827.736 695.097)">0.000</text>
          <text id="A-2" data-name="A" class="cls-7" transform="translate(897.028 694.835)">A</text>
          <text id="_1_电机电流" data-name="1#电机电流" class="cls-7" transform="translate(833.618 670.526)">1#电机电流</text>
        </g>
        <g id="组_853-8" data-name="组 853">
          <path id="矩形_4944_拷贝_4-8" data-name="矩形 4944 拷贝 4" class="cls-5" d="M1772,3722h122v51H1772v-51Zm2,2h118v47H1774v-47Zm-2,21h121v2H1772v-2Zm68,0h2v28h-2v-28Z" transform="translate(-1229 -3177)"/>
          <text id="_0.000-8" data-name="0.000" class="cls-6" transform="translate(563.737 586.099)">0.000</text>
          <text id="MPa-4" data-name="MPa" class="cls-7" transform="translate(623.027 585.833)">MPa</text>
          <text id="_1_水泵出口压力" data-name="1#水泵出口压力" class="cls-7" transform="translate(557.628 561.523)">1#水泵出口压力</text>
        </g>
        <g id="组_853-9" data-name="组 853">
          <path id="矩形_4944_拷贝_4-9" data-name="矩形 4944 拷贝 4" class="cls-5" d="M2036,3770h122v51H2036v-51Zm2,2h118v47H2038v-47Zm-2,21h121v2H2036v-2Zm68,0h2v28h-2v-28Z" transform="translate(-1229 -3177)"/>
          <text id="_0.000-9" data-name="0.000" class="cls-6" transform="translate(827.736 634.1)">0.000</text>
          <text id="_Hz" data-name=" Hz" class="cls-7" transform="translate(887.026 633.834)"> Hz</text>
          <text id="_1_电机频率" data-name="1#电机频率" class="cls-7" transform="translate(830.62 609.524)">1#电机频率</text>
        </g>
      </g>
    </g>
    <g id="_38泵站1-3号水泵电机-4" data-name="38泵站1-3号水泵电机">
      <path id="椭圆_4543_拷贝_6-3" data-name="椭圆 4543 拷贝 6" class="cls-1" d="M2116.6,3495.91a29.5,29.5,0,0,1-25.1,45c-0.17,0-.33-0.01-0.5-0.02v0.02h-45v-14h20.4a29.507,29.507,0,0,1,23.6-44.97v-0.03h45v14h-18.4Zm-25.1.5a15,15,0,1,0,15,15A15,15,0,0,0,2091.5,3496.41Z" transform="translate(-1229 -3177)"/>
      <path id="矩形_4946-3" data-name="矩形 4946" class="cls-2" d="M2135,3490v-2h323v2H2135Zm-518.01,52.01L1602,3533.5l14.99-8.51V3533H2046v2H1616.99v7.01Z" transform="translate(-1229 -3177)"/>
      <path id="多边形_4645_拷贝_12-3" data-name="多边形 4645 拷贝 12" class="cls-3" d="M2327,3489l10-7v14.01Zm0,0-10.01,7v-14.01Z" transform="translate(-1229 -3177)"/>
      <path id="多边形_4645_拷贝_13" data-name="多边形 4645 拷贝 13" class="cls-3" d="M1853,3534l10-7v14.01Zm0,0-10.01,7v-14.01Z" transform="translate(-1229 -3177)"/>
      <g id="组_859-3" data-name="组 859">
        <g id="组_853-10" data-name="组 853">
          <path id="矩形_4944_拷贝_4-10" data-name="矩形 4944 拷贝 4" class="cls-5" d="M2166,3416h122v51H2166v-51Zm2,2h118v47H2168v-47Zm-2,21h121v2H2166v-2Zm68,0h2v28h-2v-28Z" transform="translate(-1229 -3177)"/>
          <text id="_0.000-10" data-name="0.000" class="cls-6" transform="translate(957.739 280.096)">0.000</text>
          <text id="MPa-5" data-name="MPa" class="cls-7" transform="translate(1017.029 279.835)">MPa</text>
          <text id="_2_水泵入口压力" data-name="2#水泵入口压力" class="cls-7" transform="translate(953.619 255.525)">2#水泵入口压力</text>
        </g>
        <g id="组_853-11" data-name="组 853">
          <path id="矩形_4944_拷贝_4-11" data-name="矩形 4944 拷贝 4" class="cls-5" d="M2166,3511h122v51H2166v-51Zm2,2h118v47H2168v-47Zm-2,21h121v2H2166v-2Zm68,0h2v28h-2v-28Z" transform="translate(-1229 -3177)"/>
          <text id="_0.000-11" data-name="0.000" class="cls-6" transform="translate(957.739 375.098)">0.000</text>
          <text id="Hz" class="cls-7" transform="translate(1027.031 374.837)">Hz</text>
          <text id="_2_电机频率" data-name="2#电机频率" class="cls-7" transform="translate(960.623 350.527)">2#电机频率</text>
        </g>
        <g id="组_853-12" data-name="组 853">
          <path id="矩形_4944_拷贝_4-12" data-name="矩形 4944 拷贝 4" class="cls-5" d="M2166,3572h122v51H2166v-51Zm2,2h118v47H2168v-47Zm-2,21h121v2H2166v-2Zm68,0h2v28h-2v-28Z" transform="translate(-1229 -3177)"/>
          <text id="_0.000-12" data-name="0.000" class="cls-6" transform="translate(957.739 436.099)">0.000</text>
          <text id="A-3" data-name="A" class="cls-7" transform="translate(1028.026 435.834)">A</text>
          <text id="_2_电机电流" data-name="2#电机电流" class="cls-7" transform="translate(960.623 411.524)">2#电机电流</text>
        </g>
        <g id="组_853-13" data-name="组 853">
          <path id="矩形_4944_拷贝_4-13" data-name="矩形 4944 拷贝 4" class="cls-5" d="M1900,3447h122v51H1900v-51Zm2,2h118v47H1902v-47Zm-2,21h121v2H1900v-2Zm68,0h2v28h-2v-28Z" transform="translate(-1229 -3177)"/>
          <text id="_0.000-13" data-name="0.000" class="cls-6" transform="translate(691.737 311.099)">0.000</text>
          <text id="MPa-6" data-name="MPa" class="cls-7" transform="translate(751.027 310.834)">MPa</text>
          <text id="_2_水泵出口压力" data-name="2#水泵出口压力" class="cls-7" transform="translate(681.621 286.524)">2#水泵出口压力</text>
        </g>
      </g>
    </g>
  </g>
  <g id="组_863" data-name="组 863">
    <g id="组_862" data-name="组 862">
      <g id="组_861" data-name="组 861">
        <rect id="矩形_5047" data-name="矩形 5047" class="cls-8" y="28" width="300" height="40"/>
        <text id="_1_流量" data-name="1#流量" class="cls-9" x="15.635" y="54.709">1#流量</text>
        <text id="_122.1" data-name="+122.1" class="cls-10" x="161.635" y="54.709">+122.1</text>
        <text id="m3_h" data-name="m3/h" class="cls-9" x="225.629" y="54.709">m3/h</text>
      </g>
      <g id="组_861-2" data-name="组 861">
        <rect id="矩形_5047-2" data-name="矩形 5047" class="cls-8" y="70" width="300" height="40"/>
        <text id="_1_累计流量" data-name="1#累计流量" class="cls-9" x="15.635" y="96.707">1#累计流量</text>
        <text id="_35141.1" data-name="+35141.1" class="cls-10" x="140.634" y="96.707">+35141.1</text>
        <text id="m3" class="cls-9" x="225.629" y="96.707">m3</text>
      </g>
    </g>
    <g id="组_862-2" data-name="组 862">
      <g id="组_861-3" data-name="组 861">
        <rect id="矩形_5047-3" data-name="矩形 5047" class="cls-8" y="120" width="300" height="40"/>
        <text id="_2_流量" data-name="2#流量" class="cls-9" x="15.635" y="146.709">2#流量</text>
        <text id="_122.1-2" data-name="+122.1" class="cls-10" x="161.635" y="146.709">+122.1</text>
        <text id="m3_h-2" data-name="m3/h" class="cls-9" x="225.629" y="146.709">m3/h</text>
      </g>
      <g id="组_861-4" data-name="组 861">
        <rect id="矩形_5047-4" data-name="矩形 5047" class="cls-8" y="162" width="300" height="40"/>
        <text id="_2_累计流量" data-name="2#累计流量" class="cls-9" x="15.635" y="188.707">2#累计流量</text>
        <text id="_35141.1-2" data-name="+35141.1" class="cls-10" x="140.634" y="188.707">+35141.1</text>
        <text id="m3-2" data-name="m3" class="cls-9" x="225.629" y="188.707">m3</text>
      </g>
    </g>
    <g id="组_862-3" data-name="组 862">
      <g id="组_861-5" data-name="组 861">
        <rect id="矩形_5047-5" data-name="矩形 5047" class="cls-8" y="212" width="300" height="40"/>
        <text id="_3_流量" data-name="3#流量" class="cls-9" x="15.635" y="238.709">3#流量</text>
        <text id="_122.1-3" data-name="+122.1" class="cls-10" x="161.635" y="238.709">+122.1</text>
        <text id="m3_h-3" data-name="m3/h" class="cls-9" x="225.629" y="238.709">m3/h</text>
      </g>
      <g id="组_861-6" data-name="组 861">
        <rect id="矩形_5047-6" data-name="矩形 5047" class="cls-8" y="254" width="300" height="40"/>
        <text id="_3_累计流量" data-name="3#累计流量" class="cls-9" x="15.635" y="280.707">3#累计流量</text>
        <text id="_35141.1-3" data-name="+35141.1" class="cls-10" x="140.634" y="280.707">+35141.1</text>
        <text id="m3-3" data-name="m3" class="cls-9" x="225.629" y="280.707">m3</text>
      </g>
    </g>
    <g id="组_862-4" data-name="组 862">
      <g id="组_861-7" data-name="组 861">
        <rect id="矩形_5047-7" data-name="矩形 5047" class="cls-8" y="304" width="300" height="40"/>
        <text id="_4_流量" data-name="4#流量" class="cls-9" x="15.635" y="330.709">4#流量</text>
        <text id="_122.1-4" data-name="+122.1" class="cls-10" x="161.635" y="330.709">+122.1</text>
        <text id="m3_h-4" data-name="m3/h" class="cls-9" x="225.629" y="330.709">m3/h</text>
      </g>
      <g id="组_861-8" data-name="组 861">
        <rect id="矩形_5047-8" data-name="矩形 5047" class="cls-8" y="346" width="300" height="40"/>
        <text id="_4_累计流量" data-name="4#累计流量" class="cls-9" x="15.635" y="372.707">4#累计流量</text>
        <text id="_35141.1-4" data-name="+35141.1" class="cls-10" x="140.634" y="372.707">+35141.1</text>
        <text id="m3-4" data-name="m3" class="cls-9" x="225.629" y="372.707">m3</text>
      </g>
    </g>
    <g id="组_862-5" data-name="组 862">
      <g id="组_861-9" data-name="组 861">
        <rect id="矩形_5047-9" data-name="矩形 5047" class="cls-8" y="396" width="300" height="40"/>
        <text id="_5_流量" data-name="5#流量" class="cls-9" x="15.635" y="422.709">5#流量</text>
        <text id="_122.1-5" data-name="+122.1" class="cls-10" x="161.635" y="422.709">+122.1</text>
        <text id="m3_h-5" data-name="m3/h" class="cls-9" x="225.629" y="422.709">m3/h</text>
      </g>
      <g id="组_861-10" data-name="组 861">
        <rect id="矩形_5047-10" data-name="矩形 5047" class="cls-8" y="438" width="300" height="40"/>
        <text id="_5_累计流量" data-name="5#累计流量" class="cls-9" x="15.635" y="464.707">5#累计流量</text>
        <text id="_35141.1-5" data-name="+35141.1" class="cls-10" x="140.634" y="464.707">+35141.1</text>
        <text id="m3-5" data-name="m3" class="cls-9" x="225.629" y="464.707">m3</text>
      </g>
    </g>
    <g id="组_862-6" data-name="组 862">
      <g id="组_861-11" data-name="组 861">
        <rect id="矩形_5047-11" data-name="矩形 5047" class="cls-8" y="488" width="300" height="40"/>
        <text id="_6_流量" data-name="6#流量" class="cls-9" x="15.635" y="514.709">6#流量</text>
        <text id="_122.1-6" data-name="+122.1" class="cls-10" x="161.635" y="514.709">+122.1</text>
        <text id="m3_h-6" data-name="m3/h" class="cls-9" x="225.629" y="514.709">m3/h</text>
      </g>
      <g id="组_861-12" data-name="组 861">
        <rect id="矩形_5047-12" data-name="矩形 5047" class="cls-8" y="530" width="300" height="40"/>
        <text id="_6_累计流量" data-name="6#累计流量" class="cls-9" x="15.635" y="556.707">6#累计流量</text>
        <text id="_35141.1-6" data-name="+35141.1" class="cls-10" x="140.634" y="556.707">+35141.1</text>
        <text id="m3-6" data-name="m3" class="cls-9" x="225.629" y="556.707">m3</text>
      </g>
    </g>
    <g id="组_862-7" data-name="组 862">
      <g id="组_861-13" data-name="组 861">
        <rect id="矩形_5047-13" data-name="矩形 5047" class="cls-8" y="580" width="300" height="40"/>
        <text id="_7_流量" data-name="7#流量" class="cls-9" x="15.635" y="606.709">7#流量</text>
        <text id="_122.1-7" data-name="+122.1" class="cls-10" x="161.635" y="606.709">+122.1</text>
        <text id="m3_h-7" data-name="m3/h" class="cls-9" x="225.629" y="606.709">m3/h</text>
      </g>
      <g id="组_861-14" data-name="组 861">
        <rect id="矩形_5047-14" data-name="矩形 5047" class="cls-8" y="622" width="300" height="40"/>
        <text id="_7_累计流量" data-name="7#累计流量" class="cls-9" x="15.635" y="648.707">7#累计流量</text>
        <text id="_35141.1-7" data-name="+35141.1" class="cls-10" x="140.634" y="648.707">+35141.1</text>
        <text id="m3-7" data-name="m3" class="cls-9" x="225.629" y="648.707">m3</text>
      </g>
    </g>
  </g>
</svg>
