<svg id="_38泵站4-7号水泵电机" data-name="38泵站4-7号水泵电机" xmlns="http://www.w3.org/2000/svg" width="1122" height="714" viewBox="0 0 1122 714">
  <metadata><?xpacket begin="﻿" id="W5M0MpCehiHzreSzNTczkc9d"?>
<x:xmpmeta xmlns:x="adobe:ns:meta/" x:xmptk="Adobe XMP Core 5.6-c138 79.159824, 2016/09/14-01:09:01        ">
   <rdf:RDF xmlns:rdf="http://www.w3.org/1999/02/22-rdf-syntax-ns#">
      <rdf:Description rdf:about=""/>
   </rdf:RDF>
</x:xmpmeta>
                                                                                                    
                                                                                                    
                                                                                                    
                                                                                                    
                                                                                                    
                                                                                                    
                                                                                                    
                                                                                                    
                                                                                                    
                                                                                                    
                                                                                                    
                                                                                                    
                                                                                                    
                                                                                                    
                                                                                                    
                                                                                                    
                                                                                                    
                                                                                                    
                                                                                                    
                                                                                                    
                           
<?xpacket end="w"?></metadata>
<defs>
    <style>
      .cls-1, .cls-10 {
        fill: #fa607e;
      }

      .cls-1, .cls-2, .cls-3, .cls-4, .cls-7, .cls-8 {
        fill-rule: evenodd;
      }

      .cls-2 {
        fill: #5b83e1;
      }

      .cls-3 {
        fill: #f0f0f0;
      }

      .cls-4 {
        fill: #5085c6;
      }

      .cls-10, .cls-11, .cls-5, .cls-9 {
        font-size: 14px;
      }

      .cls-5 {
        fill: #fefefe;
      }

      .cls-10, .cls-11, .cls-5, .cls-6, .cls-9 {
        font-family: "PingFang SC";
      }

      .cls-6 {
        font-size: 14.004px;
      }

      .cls-6, .cls-9 {
        fill: #a3cff6;
      }

      .cls-7 {
        fill: none;
        stroke: #5b83e1;
        stroke-width: 2px;
      }

      .cls-8 {
        fill: #4786ff;
      }

      .cls-11 {
        fill: #fff;
      }
    </style>
  </defs>
  <g id="_38泵站1-3号水泵电机" data-name="38泵站1-3号水泵电机">
    <path id="椭圆_4543_拷贝_6" data-name="椭圆 4543 拷贝 6" class="cls-1" d="M1828.6,3233.91a29.5,29.5,0,0,1-25.1,45c-0.17,0-.33-0.01-0.5-0.02v0.02h-45v-14h20.4a29.507,29.507,0,0,1,23.6-44.97v-0.03h45v14h-18.4Zm-25.1.5a15,15,0,1,0,15,15A15,15,0,0,0,1803.5,3234.41Z" transform="translate(-1277 -3185)"/>
    <path id="椭圆_4543_拷贝_7" data-name="椭圆 4543 拷贝 7" class="cls-1" d="M1980.6,3337.91a29.5,29.5,0,0,1-25.1,45c-0.17,0-.33-0.01-0.5-0.02v0.02h-45v-14h20.4a29.507,29.507,0,0,1,23.6-44.97v-0.03h45v14h-18.4Zm-25.1.5a15,15,0,1,0,15,15A15,15,0,0,0,1955.5,3338.41Z" transform="translate(-1277 -3185)"/>
    <path id="椭圆_4543_拷贝_8" data-name="椭圆 4543 拷贝 8" class="cls-1" d="M1859.6,3517.91a29.5,29.5,0,0,1-25.1,45c-0.17,0-.33-0.01-0.5-0.02v0.02h-45v-14h20.4a29.507,29.507,0,0,1,23.6-44.97v-0.03h45v14h-18.4Zm-25.1.5a15,15,0,1,0,15,15A15,15,0,0,0,1834.5,3518.41Z" transform="translate(-1277 -3185)"/>
    <path id="椭圆_4543_拷贝_9" data-name="椭圆 4543 拷贝 9" class="cls-1" d="M1985.6,3668.91a29.5,29.5,0,0,1-25.1,45c-0.17,0-.33-0.01-0.5-0.02v0.02h-45v-14h20.4a29.507,29.507,0,0,1,23.6-44.97v-0.03h45v14h-18.4Zm-25.1.5a15,15,0,1,0,15,15A15,15,0,0,0,1960.5,3669.41Z" transform="translate(-1277 -3185)"/>
    <path id="矩形_4946" data-name="矩形 4946" class="cls-2" d="M2004,3663v-2h395v2H2004Zm-126-154h521v2H1878v-2Zm121-178v-2h304v2H1999Zm-152-105h462v2H1847v-2Zm-520,551h-2V3271h433v2H1327v504Zm583-402v2H1399v400h-2V3375h513Zm-121,181H1621v221h-2V3554h170v2Zm126,152H1675v69h-2v-71h242v2Z" transform="translate(-1277 -3185)"/>
    <path id="多边形_4645_拷贝_12" data-name="多边形 4645 拷贝 12" class="cls-3" d="M2245,3330l10-7v14.01Zm0,0-10.01,7v-14.01Z" transform="translate(-1277 -3185)"/>
    <path id="多边形_4645_拷贝_16" data-name="多边形 4645 拷贝 16" class="cls-3" d="M2252,3510l10-7v14.01Zm0,0-10.01,7v-14.01Z" transform="translate(-1277 -3185)"/>
    <path id="多边形_4645_拷贝_17" data-name="多边形 4645 拷贝 17" class="cls-3" d="M2250,3662l10-7v14.01Zm0,0-10.01,7v-14.01Z" transform="translate(-1277 -3185)"/>
    <path id="多边形_4645_拷贝_15" data-name="多边形 4645 拷贝 15" class="cls-3" d="M2234,3227l10-7v14.01Zm0,0-10.01,7v-14.01Z" transform="translate(-1277 -3185)"/>
    <path id="多边形_4645_拷贝_13" data-name="多边形 4645 拷贝 13" class="cls-3" d="M1565,3272l10-7v14.01Zm0,0-10.01,7v-14.01Z" transform="translate(-1277 -3185)"/>
    <path id="多边形_4645_拷贝_18" data-name="多边形 4645 拷贝 18" class="cls-3" d="M1609,3376l10-7v14.01Zm0,0-10.01,7v-14.01Z" transform="translate(-1277 -3185)"/>
    <path id="多边形_4645_拷贝_19" data-name="多边形 4645 拷贝 19" class="cls-3" d="M1694,3555l10-7v14.01Zm0,0-10.01,7v-14.01Z" transform="translate(-1277 -3185)"/>
    <path id="多边形_4645_拷贝_20" data-name="多边形 4645 拷贝 20" class="cls-3" d="M1806,3707l10-7v14.01Zm0,0-10.01,7v-14.01Z" transform="translate(-1277 -3185)"/>
    <g id="组_859" data-name="组 859">
      <g id="组_853" data-name="组 853">
        <path id="矩形_4944_拷贝_4" data-name="矩形 4944 拷贝 4" class="cls-4" d="M1363,3290h122v51H1363v-51Zm2,2h118v47H1365v-47Zm-2,21h121v2H1363v-2Zm68,0h2v28h-2v-28Z" transform="translate(-1277 -3185)"/>
        <text id="_0.000" data-name="0.000" class="cls-5" transform="translate(106.743 146.1)">0.000</text>
        <text id="m3_h" data-name="m3/h" class="cls-6" transform="translate(166.021 145.834)">m3/h</text>
        <text id="_7_流量" data-name="7#流量" class="cls-6" transform="translate(129.622 121.524)">7#流量</text>
      </g>
      <g id="组_853-2" data-name="组 853">
        <path id="矩形_4944_拷贝_4-2" data-name="矩形 4944 拷贝 4" class="cls-4" d="M1412,3407h122v51H1412v-51Zm2,2h118v47H1414v-47Zm-2,21h121v2H1412v-2Zm68,0h2v28h-2v-28Z" transform="translate(-1277 -3185)"/>
        <text id="_0.000-2" data-name="0.000" class="cls-5" transform="translate(155.749 263.099)">0.000</text>
        <text id="m3_h-2" data-name="m3/h" class="cls-6" transform="translate(215.025 262.833)">m3/h</text>
        <text id="_6_流量" data-name="6#流量" class="cls-6" transform="translate(178.624 238.523)">6#流量</text>
      </g>
      <g id="组_853-3" data-name="组 853">
        <path id="矩形_4944_拷贝_4-3" data-name="矩形 4944 拷贝 4" class="cls-4" d="M1643,3479h122v51H1643v-51Zm2,2h118v47H1645v-47Zm-2,21h121v2H1643v-2Zm68,0h2v28h-2v-28Z" transform="translate(-1277 -3185)"/>
        <text id="_0.000-3" data-name="0.000" class="cls-5" transform="translate(386.743 335.099)">0.000</text>
        <text id="m3_h-3" data-name="m3/h" class="cls-6" transform="translate(446.033 334.833)">m3/h</text>
        <text id="_5_流量" data-name="5#流量" class="cls-6" transform="translate(409.617 310.523)">5#流量</text>
      </g>
      <g id="组_853-4" data-name="组 853">
        <path id="矩形_4944_拷贝_4-4" data-name="矩形 4944 拷贝 4" class="cls-4" d="M1692,3629h122v51H1692v-51Zm2,2h118v47H1694v-47Zm-2,21h121v2H1692v-2Zm68,0h2v28h-2v-28Z" transform="translate(-1277 -3185)"/>
        <text id="_0.000-4" data-name="0.000" class="cls-5" transform="translate(435.746 485.098)">0.000</text>
        <text id="m3_h-4" data-name="m3/h" class="cls-6" transform="translate(495.022 484.837)">m3/h</text>
        <text id="_4_流量" data-name="4#流量" class="cls-6" transform="translate(458.621 460.527)">4#流量</text>
      </g>
      <g id="组_853-5" data-name="组 853">
        <path id="矩形_4944_拷贝_4-5" data-name="矩形 4944 拷贝 4" class="cls-4" d="M2029,3352h122v51H2029v-51Zm2,2h118v47H2031v-47Zm-2,21h121v2H2029v-2Zm68,0h2v28h-2v-28Z" transform="translate(-1277 -3185)"/>
        <text id="_0.000-5" data-name="0.000" class="cls-5" transform="translate(772.746 208.097)">0.000</text>
        <text id="A" class="cls-6" transform="translate(843.033 207.836)">A</text>
        <text id="_6_电机电流" data-name="6#电机电流" class="cls-6" transform="translate(775.616 183.526)">6#电机电流</text>
      </g>
      <g id="组_853-6" data-name="组 853">
        <path id="矩形_4944_拷贝_4-6" data-name="矩形 4944 拷贝 4" class="cls-4" d="M1897,3530h122v51H1897v-51Zm2,2h118v47H1899v-47Zm-2,21h121v2H1897v-2Zm68,0h2v28h-2v-28Z" transform="translate(-1277 -3185)"/>
        <text id="_0.000-6" data-name="0.000" class="cls-5" transform="translate(640.739 386.098)">0.000</text>
        <text id="A-2" data-name="A" class="cls-6" transform="translate(711.026 385.836)">A</text>
        <text id="_5_电机电流" data-name="5#电机电流" class="cls-6" transform="translate(643.623 361.526)">5#电机电流</text>
      </g>
      <g id="组_853-7" data-name="组 853">
        <path id="矩形_4944_拷贝_4-7" data-name="矩形 4944 拷贝 4" class="cls-4" d="M2028,3680h122v51H2028v-51Zm2,2h118v47H2030v-47Zm-2,21h121v2H2028v-2Zm68,0h2v28h-2v-28Z" transform="translate(-1277 -3185)"/>
        <text id="_0.000-7" data-name="0.000" class="cls-5" transform="translate(771.737 536.097)">0.000</text>
        <text id="A-3" data-name="A" class="cls-6" transform="translate(842.024 535.836)">A</text>
        <text id="_4_电机电流" data-name="4#电机电流" class="cls-6" transform="translate(774.621 511.526)">4#电机电流</text>
      </g>
      <g id="组_853-8" data-name="组 853">
        <path id="矩形_4944_拷贝_4-8" data-name="矩形 4944 拷贝 4" class="cls-4" d="M1612,3185h122v51H1612v-51Zm2,2h118v47H1614v-47Zm-2,21h121v2H1612v-2Zm68,0h2v28h-2v-28Z" transform="translate(-1277 -3185)"/>
        <text id="_0.000-8" data-name="0.000" class="cls-5" transform="translate(355.741 41.1)">0.000</text>
        <text id="A-4" data-name="A" class="cls-6" transform="translate(425.019 40.834)">A</text>
        <text id="_7_电机电流" data-name="7#电机电流" class="cls-6" transform="translate(355.627 16.524)">7#电机电流</text>
      </g>
    </g>
  </g>
  <g id="水箱">
    <path id="矩形_4857" data-name="矩形 4857" class="cls-7" d="M1429,3861v19H1299v-19h-21v-84h172v84h-21Z" transform="translate(-1277 -3185)"/>
    <path id="矩形_4857_拷贝" data-name="矩形 4857 拷贝" class="cls-8" d="M1427,3859v19H1301v-19h-21v-42h168v42h-21Z" transform="translate(-1277 -3185)"/>
  </g>
  <g id="水箱-2" data-name="水箱">
    <path id="矩形_4857-2" data-name="矩形 4857" class="cls-7" d="M1716,3861v19H1586v-19h-21v-84h172v84h-21Z" transform="translate(-1277 -3185)"/>
    <path id="矩形_4857_拷贝-2" data-name="矩形 4857 拷贝" class="cls-8" d="M1714,3859v19H1588v-19h-21v-42h168v42h-21Z" transform="translate(-1277 -3185)"/>
  </g>
  <g id="水箱-3" data-name="水箱">
    <path id="矩形_4857-3" data-name="矩形 4857" class="cls-7" d="M2050,3861v19H1920v-19h-21v-84h172v84h-21Z" transform="translate(-1277 -3185)"/>
    <path id="矩形_4857_拷贝-3" data-name="矩形 4857 拷贝" class="cls-8" d="M2048,3859v19H1922v-19h-21v-42h168v42h-21Z" transform="translate(-1277 -3185)"/>
  </g>
  <g id="水箱-4" data-name="水箱">
    <path id="矩形_4857-4" data-name="矩形 4857" class="cls-7" d="M2337,3861v19H2207v-19h-21v-84h172v84h-21Z" transform="translate(-1277 -3185)"/>
    <path id="矩形_4857_拷贝-4" data-name="矩形 4857 拷贝" class="cls-8" d="M2335,3859v19H2209v-19h-21v-42h168v42h-21Z" transform="translate(-1277 -3185)"/>
  </g>
  <g id="组_865" data-name="组 865">
    <text id="_7_R" data-name="7 R" class="cls-9" x="945.131" y="81.27">7 R</text>
    <text id="_7_C" data-name="7 C" class="cls-9" x="279.131" y="118.269">7 C</text>
    <text id="_5_C" data-name="5 C" class="cls-9" x="405.128" y="402.27">5 C</text>
    <text id="_1_清水池" data-name="1#清水池" class="cls-5" x="64.126" y="712.271">1#清水池</text>
    <text id="_2_清水池" data-name="2#清水池" class="cls-5" x="345.127" y="712.271">2#清水池</text>
    <text id="_1_清水池-2" data-name="1#清水池" class="cls-5" x="682.624" y="712.271">1#清水池</text>
    <text id="_2_清水池-2" data-name="2#清水池" class="cls-5" x="973.618" y="712.271">2#清水池</text>
    <text id="_0.00_m" data-name="0.00 m" class="cls-10" x="62.125" y="661.267">0.00 m</text>
    <text id="_0.00_m-2" data-name="0.00 m" class="cls-11" x="348.125" y="661.267">0.00 m</text>
    <text id="_0.00_m_拷贝" data-name="0.00 m 拷贝" class="cls-11" x="687.128" y="661.267">0.00 m</text>
    <text id="_0.00_m_拷贝_2" data-name="0.00 m 拷贝 2" class="cls-11" x="980.126" y="661.267">0.00 m</text>
    <text id="_4_C" data-name="4 C" class="cls-9" x="521.122" y="556.268">4 C</text>
    <text id="_6_C" data-name="6 C" class="cls-9" x="320.121" y="218.27">6 C</text>
    <text id="_6_R" data-name="6 R" class="cls-9" x="957.123" y="176.268">6 R</text>
    <text id="_5_R" data-name="5 R" class="cls-9" x="964.127" y="355.269">5 R</text>
    <text id="_4_R" data-name="4 R" class="cls-9" x="965.122" y="505.269">4 R</text>
    <text id="_4_R-2" data-name="4 R" class="cls-9" x="704.121" y="556.268">4 R</text>
  </g>
</svg>
