<?xml version="1.0" encoding="UTF-8" standalone="no"?>
<svg
   xmlns:x="adobe:ns:meta/"
   xmlns:dc="http://purl.org/dc/elements/1.1/"
   xmlns:cc="http://creativecommons.org/ns#"
   xmlns:rdf="http://www.w3.org/1999/02/22-rdf-syntax-ns#"
   xmlns:svg="http://www.w3.org/2000/svg"
   xmlns="http://www.w3.org/2000/svg"
   xmlns:sodipodi="http://sodipodi.sourceforge.net/DTD/sodipodi-0.dtd"
   xmlns:inkscape="http://www.inkscape.org/namespaces/inkscape"
   id="ÈªÑÊ≤≥4Âè∑Ê≥µÁ´ô"
   width="1239"
   height="608"
   viewBox="0 0 1239 608"
   version="1.1"
   sodipodi:docname="4-all.svg"
   inkscape:version="0.92.2 (5c3e80d, 2017-08-06)">
  <sodipodi:namedview
     pagecolor="#ffffff"
     bordercolor="#666666"
     borderopacity="1"
     objecttolerance="10"
     gridtolerance="10"
     guidetolerance="10"
     inkscape:pageopacity="0"
     inkscape:pageshadow="2"
     inkscape:window-width="1920"
     inkscape:window-height="1017"
     id="namedview168"
     showgrid="false"
     inkscape:zoom="1"
     inkscape:cx="572.83243"
     inkscape:cy="431.34622"
     inkscape:window-x="-8"
     inkscape:window-y="-8"
     inkscape:window-maximized="1"
     inkscape:current-layer="ÁªÑ_890" />
  <metadata
     id="metadata2">
<?xpacket begin="ˇ" id="W5M0MpCehiHzreSzNTczkc9d"?>    <x:xmpmeta
       x:xmptk="Adobe XMP Core 5.6-c138 79.159824, 2016/09/14-01:09:01        ">
      <metadata>
        <rdf:RDF>
          <rdf:Description
             rdf:about="" />
          <cc:Work
             rdf:about="">
            <dc:format>image/svg+xml</dc:format>
            <dc:type
               rdf:resource="http://purl.org/dc/dcmitype/StillImage" />
          </cc:Work>
        </rdf:RDF>
      </metadata>
    </x:xmpmeta>
<?xpacket end="w"?>  </metadata>
  <defs
     id="defs6">
    <style
       id="style4">
      .cls-1 {
        fill: #facc17;
      }

      .cls-1, .cls-2, .cls-4, .cls-5, .cls-6, .cls-8 {
        fill-rule: evenodd;
      }

      .cls-2 {
        fill: #5b83e1;
      }

      .cls-3 {
        fill: #4786ff;
      }

      .cls-4 {
        fill: #2c8cf9;
      }

      .cls-5 {
        fill: #fa607e;
      }

      .cls-6 {
        fill: #f0f0f0;
      }

      .cls-7, .cls-9 {
        font-size: 14px;
      }

      .cls-10, .cls-11, .cls-7 {
        fill: #a3cff6;
      }

      .cls-10, .cls-11, .cls-12, .cls-7, .cls-9 {
        font-family: PingFang SC;
      }

      .cls-8 {
        fill: #5085c6;
      }

      .cls-9 {
        fill: #fefefe;
      }

      .cls-10 {
        font-size: 14.551px;
      }

      .cls-11 {
        font-size: 14.004px;
      }

      .cls-12 {
        font-size: 18px;
        fill: #fff;
      }
    </style>
  </defs>
  <g
     inkscape:groupmode="layer"
     id="layer2"
     inkscape:label="Layer 2" />
  <g
     id="ÁªÑ_890"
     data-name="ÁªÑ 890">
    <g
       id="ÁªÑ_891"
       data-name="ÁªÑ 891">
      <path
         id="s9"
         data-name="Ê§≠ÂúÜ 4543"
         class="cls-1"
         d="m 1703.01,1580.17 a 29.472,29.472 0 0 1 44.98,25.12 c 0,0.16 -0.01,0.33 -0.01,0.5 h 0.01 v 45.03 H 1734 v -20.42 a 29.477,29.477 0 0 1 -44.95,-23.61 h -0.04 v -45.04 h 14 z m 0.5,25.12 a 15,15 0 1 0 14.99,-15.01 15,15 0 0 0 -14.99,15.01 z"
         transform="translate(-1161,-1345)"
         inkscape:label="#Ê§≠ÂúÜ_4543"
         inkscape:connector-curvature="0"
         style="fill:#facc17;fill-rule:evenodd" />
      <path
         id="s12"
         data-name="Ê§≠ÂúÜ 4543 Êã∑Ë¥ù 18"
         class="cls-1"
         d="m 2217.01,1578.17 a 29.472,29.472 0 0 1 44.98,25.11 c 0,0.17 -0.01,0.34 -0.01,0.5 h 0.01 v 45.04 H 2248 v -20.42 a 29.476,29.476 0 0 1 -44.95,-23.62 h -0.04 v -45.03 h 14 z m 0.5,25.11 a 15,15 0 1 0 14.99,-15.01 15,15 0 0 0 -14.99,15.01 z"
         transform="translate(-1161,-1345)"
         inkscape:label="#Ê§≠ÂúÜ_4543_Êã∑Ë¥ù_18"
         inkscape:connector-curvature="0"
         style="fill:#facc17;fill-rule:evenodd" />
      <path
         id="s8"
         data-name="Ê§≠ÂúÜ 4543 Êã∑Ë¥ù 5"
         class="cls-1"
         d="m 1519.01,1630.21 a 29.472,29.472 0 0 1 44.98,25.11 c 0,0.17 -0.01,0.34 -0.01,0.5 h 0.01 v 45.04 H 1550 v -20.42 a 29.49,29.49 0 0 1 -44.95,-23.62 h -0.04 v -45.03 h 14 z m 0.5,25.11 a 15,15 0 1 0 14.99,-15.01 15,15 0 0 0 -14.99,15.01 z"
         transform="translate(-1161,-1345)"
         inkscape:label="#Ê§≠ÂúÜ_4543_Êã∑Ë¥ù_5"
         inkscape:connector-curvature="0"
         style="fill:#facc17;fill-rule:evenodd" />
      <path
         id="s10"
         data-name="Ê§≠ÂúÜ 4543 Êã∑Ë¥ù 17"
         class="cls-1"
         d="m 1897.01,1630.21 a 29.472,29.472 0 0 1 44.98,25.11 c 0,0.17 -0.01,0.34 -0.01,0.5 h 0.01 v 45.04 H 1928 v -20.42 a 29.49,29.49 0 0 1 -44.95,-23.62 h -0.04 v -45.03 h 14 z m 0.5,25.11 a 15,15 0 1 0 14.99,-15.01 15,15 0 0 0 -14.99,15.01 z"
         transform="translate(-1161,-1345)"
         inkscape:label="#Ê§≠ÂúÜ_4543_Êã∑Ë¥ù_17"
         inkscape:connector-curvature="0"
         style="fill:#facc17;fill-rule:evenodd" />
      <path
         id="s11"
         data-name="Ê§≠ÂúÜ 4543 Êã∑Ë¥ù 19"
         class="cls-1"
         d="m 2111.01,1630.21 a 29.472,29.472 0 0 1 44.98,25.11 c 0,0.17 -0.01,0.34 -0.01,0.5 h 0.01 v 45.04 H 2142 v -20.42 a 29.49,29.49 0 0 1 -44.95,-23.62 h -0.04 v -45.03 h 14 z m 0.5,25.11 a 15,15 0 1 0 14.99,-15.01 15,15 0 0 0 -14.99,15.01 z"
         transform="translate(-1161,-1345)"
         inkscape:label="#Ê§≠ÂúÜ_4543_Êã∑Ë¥ù_19"
         inkscape:connector-curvature="0"
         style="fill:#facc17;fill-rule:evenodd" />
      <path
         id="s7"
         data-name="Ê§≠ÂúÜ 4543 Êã∑Ë¥ù 16"
         class="cls-1"
         d="m 1312.01,1571.16 a 29.485,29.485 0 0 1 44.98,25.12 c 0,0.17 -0.01,0.33 -0.01,0.5 h 0.01 v 45.03 H 1343 v -20.41 a 29.49,29.49 0 0 1 -44.95,-23.62 h -0.04 v -45.03 h 14 z m 0.5,25.12 a 15,15 0 1 0 14.99,-15.01 15,15 0 0 0 -14.99,15.01 z"
         transform="translate(-1161,-1345)"
         inkscape:label="#Ê§≠ÂúÜ_4543_Êã∑Ë¥ù_16"
         inkscape:connector-curvature="0"
         style="fill:#facc17;fill-rule:evenodd" />
    </g>
    <path
       id="Áü©ÂΩ¢_6535"
       data-name="Áü©ÂΩ¢ 6535"
       class="cls-2"
       d="m 1555,1700.86 h 4 V 1833 h -4 z m -45,-319.24 h 4 v 230.17 h -4 z m -207,0 h 4 v 171.13 h -4 z m 45,260.19 h 4 v 188.24 h -4 z m 346,-260.19 h 4 v 180.13 h -4 z m 45,269.2 h 4 v 179.23 h -4 z m 148,-269.2 h 4 v 230.17 h -4 z m 46,319.24 h 4 v 129.19 h -4 z m 322,-51.91 h 4 v 181.06 h -4 z M 2208,1382 h 4 v 177.96 h -4 z m 161,-4.38 v 4 H 1187 v -4 z m -268,4.38 h 4 v 229.99 h -4 z m 47,318.99 h 4 v 129.19 h -4 z"
       transform="translate(-1161,-1345)"
       inkscape:connector-curvature="0"
       style="fill:#5b83e1;fill-rule:evenodd" />
    <path
       id="Áü©ÂΩ¢_6535-2"
       data-name="Áü©ÂΩ¢ 6535"
       class="cls-2"
       d="m 1217,1829 h 1174 v 124 H 1217 Z m 2.12,2 h 1169.34 v 120 H 1219.12 Z"
       transform="translate(-1161,-1345)"
       inkscape:connector-curvature="0"
       style="fill:#5b83e1;fill-rule:evenodd" />
    <rect
       id="Áü©ÂΩ¢_6535_Êã∑Ë¥ù"
       data-name="Áü©ÂΩ¢ 6535 Êã∑Ë¥ù"
       class="cls-3"
       x="56"
       y="522"
       width="1174"
       height="86"
       style="fill:#4786ff" />
    <g
       id="ÁªÑ_892"
       data-name="ÁªÑ 892">
      <g
         id="s2"
         inkscape:label="#ÈòÄÈó®">
        <path
           id="Â§öËæπÂΩ¢_4635_Êã∑Ë¥ù"
           data-name="Â§öËæπÂΩ¢ 4635 Êã∑Ë¥ù"
           class="cls-4"
           d="m 1529,1415.65 h 19 v 18.01 h -19 z m 2.01,2.01 h 15.98 v 1.97 h -15.98 z m -9,6.85 7.07,-8.87 0.92,1.15 -7.07,8.87 z m 0.91,-0.84 7.07,8.85 -0.92,1.15 -7.07,-8.86 z m -11.92,-0.02 h 12 v 2 h -12 z m 11,-7 h 2 v 16.01 h -2 z m 9.01,5.01 h 15.98 v 1.97 h -15.98 z m 0,4 h 15.98 v 1.97 h -15.98 z m 0,4 h 15.98 v 1.98 h -15.98 z"
           transform="translate(-1161,-1345)"
           inkscape:connector-curvature="0"
           style="fill:#2c8cf9;fill-rule:evenodd" />
        <path
           id="Â§öËæπÂΩ¢_4635"
           data-name="Â§öËæπÂΩ¢ 4635"
           class="cls-5"
           d="m 1512.02,1424.65 -7.01,-12.02 h 14.02 z"
           transform="translate(-1161,-1345)"
           inkscape:connector-curvature="0"
           style="fill:#fa607e;fill-rule:evenodd" />
        <path
           id="Â§öËæπÂΩ¢_4635_Êã∑Ë¥ù_2"
           data-name="Â§öËæπÂΩ¢ 4635 Êã∑Ë¥ù 2"
           class="cls-5"
           d="m 1512.03,1423.65 7,12.02 h -14.01 z"
           transform="translate(-1161,-1345)"
           inkscape:connector-curvature="0"
           style="fill:#fa607e;fill-rule:evenodd" />
      </g>
      <g
         id="s3"
         data-name="ÈòÄÈó®"
         inkscape:label="#ÈòÄÈó®-2">
        path
           id=&quot;Â§öËæπÂΩ¢_4635_Êã∑Ë¥ù-2&quot;
           data-name=&quot;Â§öËæπÂΩ¢ 4635 Êã∑Ë¥ù&quot;
           class=&quot;cls-4&quot;
           d=&quot;M1713,1415.65h19v18.01h-19v-18.01Zm2.01,2.01h15.98v1.97h-15.98v-1.97Zm-9,6.85,7.07-8.87,0.92,1.15-7.07,8.87Zm0.91-.84,7.07,8.85-0.92,1.15-7.07-8.86Zm-11.92-.02h12v2h-12v-2Zm11-7h2v16.01h-2v-16.01Zm9.01,5.01h15.98v1.97h-15.98v-1.97Zm0,4h15.98v1.97h-15.98v-1.97Zm0,4h15.98v1.98h-15.98v-1.98Z&quot;
           transform=&quot;translate(-1161 -1345)&quot; /&gt;
        <path
   id="Â§öËæπÂΩ¢_4635-2"
   data-name="Â§öËæπÂΩ¢ 4635"
   class="cls-5"
   d="m 1696.02,1424.65 -7.01,-12.02 h 14.02 z"
   transform="translate(-1161,-1345)"
   inkscape:connector-curvature="0"
   style="fill:#fa607e;fill-rule:evenodd" />
<path
   id="Â§öËæπÂΩ¢_4635_Êã∑Ë¥ù_2-2"
   data-name="Â§öËæπÂΩ¢ 4635 Êã∑Ë¥ù 2"
   class="cls-5"
   d="m 1696.03,1423.65 7,12.02 h -14.01 z"
   transform="translate(-1161,-1345)"
   inkscape:connector-curvature="0"
   style="fill:#fa607e;fill-rule:evenodd" />
</g>
      <g
         id="s4"
         data-name="ÈòÄÈó®"
         inkscape:label="#ÈòÄÈó®-3">
        <path
           id="Â§öËæπÂΩ¢_4635_Êã∑Ë¥ù-3"
           data-name="Â§öËæπÂΩ¢ 4635 Êã∑Ë¥ù"
           class="cls-4"
           d="m 1906,1415.65 h 19 v 18.01 h -19 z m 2.01,2.01 h 15.98 v 1.97 h -15.98 z m -9,6.85 7.07,-8.87 0.92,1.15 -7.07,8.87 z m 0.91,-0.84 7.07,8.85 -0.92,1.15 -7.07,-8.86 z m -11.92,-0.02 h 12 v 2 h -12 z m 11,-7 h 2 v 16.01 h -2 z m 9.01,5.01 h 15.98 v 1.97 h -15.98 z m 0,4 h 15.98 v 1.97 h -15.98 z m 0,4 h 15.98 v 1.98 h -15.98 z"
           transform="translate(-1161,-1345)"
           inkscape:connector-curvature="0"
           style="fill:#2c8cf9;fill-rule:evenodd" />
        <path
           id="Â§öËæπÂΩ¢_4635-3"
           data-name="Â§öËæπÂΩ¢ 4635"
           class="cls-5"
           d="m 1889.02,1424.65 -7.01,-12.02 h 14.02 z"
           transform="translate(-1161,-1345)"
           inkscape:connector-curvature="0"
           style="fill:#fa607e;fill-rule:evenodd" />
        <path
           id="Â§öËæπÂΩ¢_4635_Êã∑Ë¥ù_2-3"
           data-name="Â§öËæπÂΩ¢ 4635 Êã∑Ë¥ù 2"
           class="cls-5"
           d="m 1889.02,1423.65 7.01,12.02 h -14.02 z"
           transform="translate(-1161,-1345)"
           inkscape:connector-curvature="0"
           style="fill:#fa607e;fill-rule:evenodd" />
      </g>
      <g
         id="s5"
         data-name="ÈòÄÈó®"
         inkscape:label="#ÈòÄÈó®-4">
        <path
           id="Â§öËæπÂΩ¢_4635_Êã∑Ë¥ù-4"
           data-name="Â§öËæπÂΩ¢ 4635 Êã∑Ë¥ù"
           class="cls-4"
           d="m 2120,1416.03 h 19 V 1434 h -19 z m 2.01,1.99 h 15.98 v 1.97 h -15.98 z m -9,6.85 7.07,-8.86 0.92,1.15 -7.07,8.86 z m 0.91,-0.84 7.07,8.84 -0.92,1.14 -7.07,-8.84 z m -11.92,0 h 12 v 1.97 h -12 z m 11,-7 h 2 V 1433 h -2 z m 9.01,4.99 h 15.98 v 1.97 h -15.98 z m 0,4 h 15.98 v 1.97 h -15.98 z m 0,4 h 15.98 v 1.97 h -15.98 z"
           transform="translate(-1161,-1345)"
           inkscape:connector-curvature="0"
           style="fill:#2c8cf9;fill-rule:evenodd" />
        <path
           id="Â§öËæπÂΩ¢_4635-4"
           data-name="Â§öËæπÂΩ¢ 4635"
           class="cls-5"
           d="m 2103.02,1425.01 -7.01,-12 h 14.02 z"
           transform="translate(-1161,-1345)"
           inkscape:connector-curvature="0"
           style="fill:#fa607e;fill-rule:evenodd" />
        <path
           id="Â§öËæπÂΩ¢_4635_Êã∑Ë¥ù_2-4"
           data-name="Â§öËæπÂΩ¢ 4635 Êã∑Ë¥ù 2"
           class="cls-5"
           d="m 2103.02,1424.01 7.01,12 h -14.01 z"
           transform="translate(-1161,-1345)"
           inkscape:connector-curvature="0"
           style="fill:#fa607e;fill-rule:evenodd" />
      </g>
      <g
         id="s6"
         data-name="ÈòÄÈó®"
         inkscape:label="#ÈòÄÈó®-5">
        <path
           id="Â§öËæπÂΩ¢_4635_Êã∑Ë¥ù-5"
           data-name="Â§öËæπÂΩ¢ 4635 Êã∑Ë¥ù"
           class="cls-4"
           d="m 2227,1416.03 h 19 V 1434 h -19 z m 2.01,1.99 h 15.98 v 1.97 h -15.98 z m -9,6.85 7.07,-8.86 0.92,1.15 -7.07,8.86 z m 0.91,-0.84 7.07,8.84 -0.92,1.14 -7.07,-8.84 z m -11.92,0 h 12 v 1.97 h -12 z m 11,-7 h 2 V 1433 h -2 z m 9.01,4.99 h 15.98 v 1.97 h -15.98 z m 0,4 h 15.98 v 1.97 h -15.98 z m 0,4 h 15.98 v 1.97 h -15.98 z"
           transform="translate(-1161,-1345)"
           inkscape:connector-curvature="0"
           style="fill:#2c8cf9;fill-rule:evenodd" />
        <path
           id="Â§öËæπÂΩ¢_4635-5"
           data-name="Â§öËæπÂΩ¢ 4635"
           class="cls-5"
           d="m 2210.02,1425.01 -7.01,-12 h 14.02 z"
           transform="translate(-1161,-1345)"
           inkscape:connector-curvature="0"
           style="fill:#fa607e;fill-rule:evenodd" />
        <path
           id="Â§öËæπÂΩ¢_4635_Êã∑Ë¥ù_2-5"
           data-name="Â§öËæπÂΩ¢ 4635 Êã∑Ë¥ù 2"
           class="cls-5"
           d="m 2210.02,1424.01 7.01,12 h -14.01 z"
           transform="translate(-1161,-1345)"
           inkscape:connector-curvature="0"
           style="fill:#fa607e;fill-rule:evenodd" />
      </g>
      <g
         id="s1"
         data-name="ÈòÄÈó®"
         inkscape:label="#ÈòÄÈó®-6">
        <path
           id="Â§öËæπÂΩ¢_4635_Êã∑Ë¥ù-6"
           data-name="Â§öËæπÂΩ¢ 4635 Êã∑Ë¥ù"
           class="cls-4"
           d="m 1322,1415.65 h 19 v 18.01 h -19 z m 2.01,2.01 h 15.98 v 1.97 h -15.98 z m -9,6.85 7.07,-8.87 0.92,1.15 -7.07,8.87 z m 0.91,-0.84 7.07,8.85 -0.92,1.15 -7.07,-8.86 z m -11.92,-0.02 h 12 v 2 h -12 z m 11,-7 h 2 v 16.01 h -2 z m 9.01,5.01 h 15.98 v 1.97 h -15.98 z m 0,4 h 15.98 v 1.97 h -15.98 z m 0,4 h 15.98 v 1.98 h -15.98 z"
           transform="translate(-1161,-1345)"
           inkscape:connector-curvature="0"
           style="fill:#2c8cf9;fill-rule:evenodd" />
        <path
           id="Â§öËæπÂΩ¢_4635-6"
           data-name="Â§öËæπÂΩ¢ 4635"
           class="cls-5"
           d="m 1305.02,1424.65 -7.01,-12.02 h 14.02 z"
           transform="translate(-1161,-1345)"
           inkscape:connector-curvature="0"
           style="fill:#fa607e;fill-rule:evenodd" />
        <path
           id="Â§öËæπÂΩ¢_4635_Êã∑Ë¥ù_2-6"
           data-name="Â§öËæπÂΩ¢ 4635 Êã∑Ë¥ù 2"
           class="cls-5"
           d="m 1305.02,1423.65 7.01,12.02 h -14.01 z"
           transform="translate(-1161,-1345)"
           inkscape:connector-curvature="0"
           style="fill:#fa607e;fill-rule:evenodd" />
      </g>
    </g>
    <g
       id="ÁªÑ_893"
       data-name="ÁªÑ 893">
      <path
         id="Ë∞ÉËäÇÈòÄ_Êã∑Ë¥ù_3"
         data-name="Ë∞ÉËäÇÈòÄ Êã∑Ë¥ù 3"
         class="cls-6"
         d="m 1301,1514.72 h 8 v 16.01 h -8 z m 6,6 h 8 v 4.01 h -8 z m 8,-10 h 8 v 23.01 h -8 z m 2,2 h 4 v 19.01 h -4 z m -1,7 h 6 v 2 h -6 z m 0,4.01 h 6 v 2 h -6 z"
         transform="translate(-1161,-1345)"
         inkscape:connector-curvature="0"
         style="fill:#f0f0f0;fill-rule:evenodd" />
      <path
         id="Ë∞ÉËäÇÈòÄ_Êã∑Ë¥ù_6"
         data-name="Ë∞ÉËäÇÈòÄ Êã∑Ë¥ù 6"
         class="cls-6"
         d="m 1508,1552.75 h 8 v 16.01 h -8 z m 6,6 h 8 v 4 h -8 z m 8,-10.01 h 8 v 23.02 h -8 z m 2,2.01 h 4 v 19.01 h -4 z m -1,7 h 6 v 2 h -6 z m 0,4 h 6 v 2.01 h -6 z"
         transform="translate(-1161,-1345)"
         inkscape:connector-curvature="0"
         style="fill:#f0f0f0;fill-rule:evenodd" />
      <path
         id="Ë∞ÉËäÇÈòÄ_Êã∑Ë¥ù_7"
         data-name="Ë∞ÉËäÇÈòÄ Êã∑Ë¥ù 7"
         class="cls-6"
         d="m 1692,1526.73 h 8 v 16.01 h -8 z m 6,6 h 8 v 4 h -8 z m 8,-10.01 h 8 v 23.02 h -8 z m 2,2.01 h 4 v 19.01 h -4 z m -1,7 h 6 v 2 h -6 z m 0,4 h 6 v 2.01 h -6 z"
         transform="translate(-1161,-1345)"
         inkscape:connector-curvature="0"
         style="fill:#f0f0f0;fill-rule:evenodd" />
      <path
         id="Ë∞ÉËäÇÈòÄ_Êã∑Ë¥ù_9"
         data-name="Ë∞ÉËäÇÈòÄ Êã∑Ë¥ù 9"
         class="cls-6"
         d="m 1885,1524.73 h 8 v 16.01 h -8 z m 6,6 h 8 v 4 h -8 z m 8,-10.01 h 8 v 23.02 h -8 z m 2,2 h 4 v 19.02 h -4 z m -1,7.01 h 6 v 2 h -6 z m 0,4 h 6 v 2 h -6 z"
         transform="translate(-1161,-1345)"
         inkscape:connector-curvature="0"
         style="fill:#f0f0f0;fill-rule:evenodd" />
      <path
         id="Ë∞ÉËäÇÈòÄ_Êã∑Ë¥ù_12"
         data-name="Ë∞ÉËäÇÈòÄ Êã∑Ë¥ù 12"
         class="cls-6"
         d="m 2099,1502.99 h 8 V 1519 h -8 z m 6,6 h 8 v 3.99 h -8 z m 8,-9.99 h 8 v 23 h -8 z m 2,2 h 4 v 19 h -4 z m -1,6.99 h 6 v 2 h -6 z m 0,3.99 h 6 v 2 h -6 z"
         transform="translate(-1161,-1345)"
         inkscape:connector-curvature="0"
         style="fill:#f0f0f0;fill-rule:evenodd" />
      <path
         id="Ë∞ÉËäÇÈòÄ_Êã∑Ë¥ù_13"
         data-name="Ë∞ÉËäÇÈòÄ Êã∑Ë¥ù 13"
         class="cls-6"
         d="m 2146,1786.99 h 8 V 1803 h -8 z m 6,6 h 8 v 3.99 h -8 z m 8,-9.99 h 8 v 23 h -8 z m 2,2 h 4 v 19 h -4 z m -1,6.99 h 6 v 2 h -6 z m 0,3.99 h 6 v 2 h -6 z"
         transform="translate(-1161,-1345)"
         inkscape:connector-curvature="0"
         style="fill:#f0f0f0;fill-rule:evenodd" />
      <path
         id="Ë∞ÉËäÇÈòÄ_Êã∑Ë¥ù_14"
         data-name="Ë∞ÉËäÇÈòÄ Êã∑Ë¥ù 14"
         class="cls-6"
         d="m 2253,1796 h 8 v 16 h -8 z m 6,6 h 8 v 3.97 h -8 z m 8,-10 h 8 v 23 h -8 z m 2,2 h 4 v 19 h -4 z m -1,7 h 6 v 2 h -6 z m 0,3.97 h 6 v 2 h -6 z"
         transform="translate(-1161,-1345)"
         inkscape:connector-curvature="0"
         style="fill:#f0f0f0;fill-rule:evenodd" />
      <path
         id="Ë∞ÉËäÇÈòÄ_Êã∑Ë¥ù_11"
         data-name="Ë∞ÉËäÇÈòÄ Êã∑Ë¥ù 11"
         class="cls-6"
         d="m 2206,1524.73 h 8 v 16.01 h -8 z m 6,6 h 8 v 4 h -8 z m 8,-10.01 h 8 v 23.02 h -8 z m 2,2 h 4 v 19.02 h -4 z m -1,7.01 h 6 v 2 h -6 z m 0,4 h 6 v 2 h -6 z"
         transform="translate(-1161,-1345)"
         inkscape:connector-curvature="0"
         style="fill:#f0f0f0;fill-rule:evenodd" />
    </g>
    <g
       id="ÁªÑ_894"
       data-name="ÁªÑ 894">
      <path
         id="Â§öËæπÂΩ¢_4645_Êã∑Ë¥ù_43"
         data-name="Â§öËæπÂΩ¢ 4645 Êã∑Ë¥ù 43"
         class="cls-6"
         d="m 1625,1379.61 -10,7.01 v -14.02 z m 0,0.01 10.01,-7.01 v 14.02 z"
         transform="translate(-1161,-1345)"
         inkscape:connector-curvature="0"
         style="fill:#f0f0f0;fill-rule:evenodd" />
      <path
         id="Â§öËæπÂΩ¢_4645_Êã∑Ë¥ù_52"
         data-name="Â§öËæπÂΩ¢ 4645 Êã∑Ë¥ù 52"
         class="cls-6"
         d="m 2258,1379.61 -10,7.01 v -14.02 z m 0,0.01 10.01,-7.01 v 14.02 z"
         transform="translate(-1161,-1345)"
         inkscape:connector-curvature="0"
         style="fill:#f0f0f0;fill-rule:evenodd" />
      <path
         id="Â§öËæπÂΩ¢_4645_Êã∑Ë¥ù_51"
         data-name="Â§öËæπÂΩ¢ 4645 Êã∑Ë¥ù 51"
         class="cls-6"
         d="m 1987,1379.61 -10,7.01 v -14.02 z m 0,0.01 10.01,-7.01 v 14.02 z"
         transform="translate(-1161,-1345)"
         inkscape:connector-curvature="0"
         style="fill:#f0f0f0;fill-rule:evenodd" />
    </g>
    <g
       id="ÁªÑ_895"
       data-name="ÁªÑ 895">
      <text
         id="‰∏âÂè∑Âπ≤Á∫ø"
         class="cls-7"
         transform="translate(28.049,11.522)"
         style="font-size:14px;font-family:'PingFang SC';fill:#a3cff6">‰∏âÂè∑Âπ≤Á∫ø</text>
      <text
         id="ÂõõÂè∑Âπ≤Á∫ø"
         class="cls-7"
         transform="translate(1157.05,11.522)"
         style="font-size:14px;font-family:'PingFang SC';fill:#a3cff6">ÂõõÂè∑Âπ≤Á∫ø</text>
      <text
         id="_1"
         data-name="1"
         class="cls-7"
         transform="translate(462.048,16.526)"
         style="font-size:14px;font-family:'PingFang SC';fill:#a3cff6">1</text>
      <g
         id="ÁªÑ_897"
         data-name="ÁªÑ 897">
        <text
           id="_401_v"
           data-name="401 v"
           class="cls-7"
           transform="translate(93.05,84.578)"
           style="font-size:14px;font-family:'PingFang SC';fill:#a3cff6">401 v</text>
        <text
           id="_401_M"
           data-name="401 M"
           class="cls-7"
           transform="translate(90.05,182.649)"
           style="font-size:14px;font-family:'PingFang SC';fill:#a3cff6">401 M</text>
      </g>
      <g
         id="ÁªÑ_896"
         data-name="ÁªÑ 896">
        <text
           id="_402_v"
           data-name="402 v"
           class="cls-7"
           transform="translate(300.048,84.578)"
           style="font-size:14px;font-family:'PingFang SC';fill:#a3cff6">402 v</text>
        <text
           id="_402_M"
           data-name="402 M"
           class="cls-7"
           transform="translate(294.048,222.68)"
           style="font-size:14px;font-family:'PingFang SC';fill:#a3cff6">402 M</text>
      </g>
      <g
         id="ÁªÑ_896-2"
         data-name="ÁªÑ 896">
        <text
           id="_403_v"
           data-name="403 v"
           class="cls-7"
           transform="matrix(1.002,0,0,0.994,488.285,84.788)"
           style="font-size:14px;font-family:'PingFang SC';fill:#a3cff6">403 v</text>
        <text
           id="_403_M"
           data-name="403 M"
           class="cls-7"
           transform="matrix(1.002,0,0,0.994,480.56,193.542)"
           style="font-size:14px;font-family:'PingFang SC';fill:#a3cff6">403 M</text>
      </g>
      <g
         id="ÁªÑ_896-3"
         data-name="ÁªÑ 896">
        <text
           id="_404_v"
           data-name="404 v"
           class="cls-7"
           transform="matrix(1.002,0,0,0.994,681.285,84.788)"
           style="font-size:14px;font-family:'PingFang SC';fill:#a3cff6">404 v</text>
        <text
           id="_405_v"
           data-name="405 v"
           class="cls-7"
           transform="matrix(1.002,0,0,0.994,896.285,82.789)"
           style="font-size:14px;font-family:'PingFang SC';fill:#a3cff6">405 v</text>
        <text
           id="_406_v"
           data-name="406 v"
           class="cls-7"
           transform="matrix(1.002,0,0,0.994,1002.284,82.789)"
           style="font-size:14px;font-family:'PingFang SC';fill:#a3cff6">406 v</text>
        <text
           id="_404_M"
           data-name="404 M"
           class="cls-7"
           transform="matrix(1.002,0,0,0.994,670.56,191.541)"
           style="font-size:14px;font-family:'PingFang SC';fill:#a3cff6">404 M</text>
        <text
           id="_405_M"
           data-name="405 M"
           class="cls-7"
           transform="matrix(1.002,0,0,0.994,887.559,171.54)"
           style="font-size:14px;font-family:'PingFang SC';fill:#a3cff6">405 M</text>
        <text
           id="_405_M_Êã∑Ë¥ù"
           data-name="405 M Êã∑Ë¥ù"
           class="cls-7"
           transform="scale(1.0040161,0.99599998)"
           style="font-style:normal;font-variant:normal;font-weight:normal;font-stretch:normal;font-size:13.97200012px;font-family:'PingFang SC';-inkscape-font-specification:'PingFang SC, Normal';font-variant-ligatures:normal;font-variant-caps:normal;font-variant-numeric:normal;font-feature-settings:normal;text-align:start;writing-mode:lr-tb;text-anchor:start;fill:#a3cff6;stroke-width:0.99799198"
           x="993.57074"
           y="194.31828">
          <tspan
             sodipodi:role="line"
             id="tspan1139"
             x="993.57074"
             y="194.31828">406 M</tspan>
        </text>
      </g>
      <text
         id="_2"
         data-name="2"
         class="cls-7"
         transform="translate(821.048,16.526)"
         style="font-size:14px;font-family:'PingFang SC';fill:#a3cff6">2</text>
      <text
         id="_3"
         data-name="3"
         class="cls-7"
         transform="translate(1091.048,16.526)"
         style="font-size:14px;font-family:'PingFang SC';fill:#a3cff6">3</text>
    </g>
  </g>
  <g
     id="ÁªÑ_899"
     data-name="ÁªÑ 899">
    <g
       id="ÁªÑ_853-2"
       data-name="ÁªÑ 853">
      <path
         id="Áü©ÂΩ¢_4944-2"
         data-name="Áü©ÂΩ¢ 4944"
         class="cls-8"
         d="M1161,1607h122v51H1161v-51Zm2,2h118v47H1163v-47Zm-2,21.02h121v2H1161v-2Zm68,0h2V1658h-2v-27.98Z"
         transform="translate(-1161 -1345)" />
      <text
         id="p1"
         data-name="0.000"
         class="cls-9"
         transform="translate(18.296 303.819) scale(1.004 0.962)"
         inkscape:label="#_0.000-2">0.000</text>
      <text
         id="A"
         class="cls-10"
         transform="translate(87.848 303.566) scale(1.004 0.962)">A</text>
      <text
         id="_401ÁîµÊú∫ÁîµÊµÅ"
         data-name="401ÁîµÊú∫ÁîµÊµÅ"
         class="cls-11"
         transform="translate(17.622 279.53)">401ÁîµÊú∫ÁîµÊµÅ</text>
    </g>
    <g
       id="ÁªÑ_853-3"
       data-name="ÁªÑ 853">
      <path
         id="Áü©ÂΩ¢_4944-3"
         data-name="Áü©ÂΩ¢ 4944"
         class="cls-8"
         d="M1377,1646h122v51H1377v-51Zm2,2h118v47H1379v-47Zm-2,21.02h121v2H1377v-2Zm68,0h2V1697h-2v-27.98Z"
         transform="translate(-1161 -1345)" />
      <text
         id="p3"
         data-name="0.000"
         class="cls-9"
         transform="translate(234.297 342.818) scale(1.004 0.962)"
         inkscape:label="#_0.000-3">0.000</text>
      <text
         id="A-2"
         data-name="A"
         class="cls-10"
         transform="translate(303.849 342.564) scale(1.004 0.962)">A</text>
      <text
         id="_402ÁîµÊú∫ÁîµÊµÅ"
         data-name="402ÁîµÊú∫ÁîµÊµÅ"
         class="cls-11"
         transform="translate(233.623 318.528)">402ÁîµÊú∫ÁîµÊµÅ</text>
    </g>
    <g
       id="ÁªÑ_853-4"
       data-name="ÁªÑ 853">
      <path
         id="Áü©ÂΩ¢_4944-4"
         data-name="Áü©ÂΩ¢ 4944"
         class="cls-8"
         d="M1595,1644h122v51H1595v-51Zm2,2h118v47H1597v-47Zm-2,20.99h121v1.99H1595v-1.99Zm68,0h2V1695h-2v-28.01Z"
         transform="translate(-1161 -1345)" />
      <text
         id="p5"
         data-name="0.000"
         class="cls-9"
         transform="translate(452.297 340.805) scale(1.004 0.962)"
         inkscape:label="#_0.000-4">0.000</text>
      <text
         id="A-3"
         data-name="A"
         class="cls-10"
         transform="translate(521.849 340.55) scale(1.004 0.962)">A</text>
      <text
         id="_403ÁîµÊú∫ÁîµÊµÅ"
         data-name="403ÁîµÊú∫ÁîµÊµÅ"
         class="cls-11"
         transform="translate(451.62 316.514)">403ÁîµÊú∫ÁîµÊµÅ</text>
    </g>
    <g
       id="ÁªÑ_853-5"
       data-name="ÁªÑ 853">
      <path
         id="Áü©ÂΩ¢_4944-5"
         data-name="Áü©ÂΩ¢ 4944"
         class="cls-8"
         d="M1797,1703h122v51H1797v-51Zm2,2h118v47H1799v-47Zm-2,20.99h121v1.99H1797v-1.99Zm68,0h2V1754h-2v-28.01Z"
         transform="translate(-1161 -1345)" />
      <text
         id="p8"
         data-name="0.000"
         class="cls-9"
         transform="translate(654.297 399.811) scale(1.004 0.962)"
         inkscape:label="#_0.000-5">0.000</text>
      <text
         id="A-4"
         data-name="A"
         class="cls-10"
         transform="translate(723.849 399.557) scale(1.004 0.962)">A</text>
      <text
         id="_402ÁîµÊú∫ÁîµÊµÅ-2"
         data-name="402ÁîµÊú∫ÁîµÊµÅ"
         class="cls-11"
         transform="translate(653.623,375.521)"
         style="font-size:14.00399971px;font-family:'PingFang SC';fill:#a3cff6">404ÁîµÊú∫ÁîµÊµÅ</text>
    </g>
    <g
       id="ÁªÑ_853-6"
       data-name="ÁªÑ 853">
      <path
         id="Áü©ÂΩ¢_4944-6"
         data-name="Áü©ÂΩ¢ 4944"
         class="cls-8"
         d="M1965,1526h122v51H1965v-51Zm2,2h118v47H1967v-47Zm-2,21h121v2H1965v-2Zm68,0h2v28h-2v-28Z"
         transform="translate(-1161 -1345)" />
      <text
         id="p10"
         data-name="0.000"
         class="cls-9"
         transform="translate(822.296 222.81) scale(1.004 0.962)"
         inkscape:label="#_0.000-6">0.000</text>
      <text
         id="A-5"
         data-name="A"
         class="cls-10"
         transform="translate(891.848 222.558) scale(1.004 0.962)">A</text>
      <text
         id="_405ÁîµÊú∫ÁîµÊµÅ"
         data-name="405ÁîµÊú∫ÁîµÊµÅ"
         class="cls-11"
         transform="translate(821.622 198.522)">405ÁîµÊú∫ÁîµÊµÅ</text>
    </g>
    <g
       id="ÁªÑ_853-7"
       data-name="ÁªÑ 853">
      <path
         id="Áü©ÂΩ¢_4944-7"
         data-name="Áü©ÂΩ¢ 4944"
         class="cls-8"
         d="M1965,1586h122v51H1965v-51Zm2,2h118v47H1967v-47Zm-2,21h121v2H1965v-2Zm68,0h2v28h-2v-28Z"
         transform="translate(-1161 -1345)" />
      <text
         id="p11"
         data-name="0.000"
         class="cls-9"
         transform="translate(822.296 282.81) scale(1.004 0.962)"
         inkscape:label="#_0.000-7">0.000</text>
      <text
         id="Hz"
         class="cls-10"
         transform="translate(891.848 282.558) scale(1.004 0.962)">Hz</text>
      <text
         id="_405ÁîµÊú∫È¢ëÁéá"
         data-name="405ÁîµÊú∫È¢ëÁéá"
         class="cls-11"
         transform="translate(821.622 258.522)">405ÁîµÊú∫È¢ëÁéá</text>
    </g>
    <g
       id="ÁªÑ_853-8"
       data-name="ÁªÑ 853">
      <path
         id="Áü©ÂΩ¢_4944-8"
         data-name="Áü©ÂΩ¢ 4944"
         class="cls-8"
         d="M1965,1646h122v51H1965v-51Zm2,2h118v47H1967v-47Zm-2,21h121v2H1965v-2Zm68,0h2v28h-2v-28Z"
         transform="translate(-1161 -1345)" />
      <text
         id="p12"
         data-name="0.000"
         class="cls-9"
         transform="translate(822.296 342.81) scale(1.004 0.962)"
         inkscape:label="#_0.000-8">0.000</text>
      <text
         id="_Q"
         data-name=" Q"
         class="cls-10"
         transform="translate(891.848 342.557) scale(1.004 0.962)"> Q</text>
      <text
         id="_405ÁîµÊú∫ÂäüÁéáÂõ†Êï∞"
         data-name="405ÁîµÊú∫ÂäüÁéáÂõ†Êï∞"
         class="cls-11"
         transform="translate(811.621 318.521)">405ÁîµÊú∫ÂäüÁéáÂõ†Êï∞</text>
    </g>
    <g
       id="ÁªÑ_853-9"
       data-name="ÁªÑ 853">
      <path
         id="Áü©ÂΩ¢_4944-9"
         data-name="Áü©ÂΩ¢ 4944"
         class="cls-8"
         d="M2010,1743h122v51H2010v-51Zm2,2h118v47H2012v-47Zm-2,21h121v2H2010v-2Zm68,0h2v28h-2v-28Z"
         transform="translate(-1161 -1345)" />
      <text
         id="p13"
         data-name="0.000"
         class="cls-9"
         transform="translate(867.298 439.811) scale(1.004 0.962)"
         inkscape:label="#_0.000-9">0.000</text>
      <text
         id="_Q-2"
         data-name=" Q"
         class="cls-10"
         transform="translate(936.847 439.556) scale(1.004 0.962)"> Q</text>
      <text
         id="_405_Ê≥µÂÖ•Âè£Ê∞¥Âéã"
         data-name="405#Ê≥µÂÖ•Âè£Ê∞¥Âéã"
         class="cls-11"
         transform="translate(856.62 415.522)">405#Ê≥µÂÖ•Âè£Ê∞¥Âéã</text>
    </g>
    <g
       id="ÁªÑ_853-10"
       data-name="ÁªÑ 853">
      <path
         id="Áü©ÂΩ¢_4944-10"
         data-name="Áü©ÂΩ¢ 4944"
         class="cls-8"
         d="M2276,1610h122v51H2276v-51Zm2,2h118v47H2278v-47Zm-2,21.03h121v2H2276v-2Zm68,0h2V1661h-2v-27.97Z"
         transform="translate(-1161 -1345)" />
      <text
         id="p17"
         data-name="0.000"
         class="cls-9"
         transform="translate(1133.297 306.825) scale(1.004 0.962)"
         inkscape:label="#_0.000-10">0.000</text>
      <text
         id="A-6"
         data-name="A"
         class="cls-10"
         transform="translate(1202.847 306.571) scale(1.004 0.962)">A</text>
      <text
         id="_406ÁîµÊú∫ÁîµÊµÅ"
         data-name="406ÁîµÊú∫ÁîµÊµÅ"
         class="cls-11"
         transform="translate(1132.62 282.534)">406ÁîµÊú∫ÁîµÊµÅ</text>
    </g>
    <g
       id="ÁªÑ_853-11"
       data-name="ÁªÑ 853">
      <path
         id="Áü©ÂΩ¢_4944-11"
         data-name="Áü©ÂΩ¢ 4944"
         class="cls-8"
         d="M1379,1496h122v51H1379v-51Zm2,2h118v47H1381v-47Zm-2,21.02h121v2H1379v-2Zm68,0h2V1547h-2v-27.98Z"
         transform="translate(-1161 -1345)" />
      <text
         id="p2"
         data-name="0.000"
         class="cls-9"
         transform="translate(236.296 192.818) scale(1.004 0.962)"
         inkscape:label="#_0.000-11">0.000</text>
      <text
         id="MPa"
         class="cls-10"
         transform="translate(298.847 192.563) scale(1.004 0.962)">MPa</text>
      <text
         id="_402_Ê≥µÂá∫Âè£Ê∞¥Âéã"
         data-name="402#Ê≥µÂá∫Âè£Ê∞¥Âéã"
         class="cls-11"
         transform="translate(229.622 168.527)">402#Ê≥µÂá∫Âè£Ê∞¥Âéã</text>
    </g>
    <g
       id="ÁªÑ_853-12"
       data-name="ÁªÑ 853">
      <path
         id="Áü©ÂΩ¢_4944-12"
         data-name="Áü©ÂΩ¢ 4944"
         class="cls-8"
         d="M1560,1470h122v51H1560v-51Zm2,2h118v47H1562v-47Zm-2,20.99h121v1.99H1560v-1.99Zm68,0h2V1521h-2v-28.01Z"
         transform="translate(-1161 -1345)" />
      <text
         id="p4"
         data-name="0.000"
         class="cls-9"
         transform="translate(417.296 166.812) scale(1.004 0.962)"
         inkscape:label="#_0.000-12">0.000</text>
      <text
         id="MPa-2"
         data-name="MPa"
         class="cls-10"
         transform="translate(479.847 166.56) scale(1.004 0.962)">MPa</text>
      <text
         id="_403_Ê≥µÂá∫Âè£Ê∞¥Âéã"
         data-name="403#Ê≥µÂá∫Âè£Ê∞¥Âéã"
         class="cls-11"
         transform="translate(410.622 142.524)">403#Ê≥µÂá∫Âè£Ê∞¥Âéã</text>
    </g>
    <g
       id="ÁªÑ_853-13"
       data-name="ÁªÑ 853">
      <path
         id="Áü©ÂΩ¢_4944-13"
         data-name="Áü©ÂΩ¢ 4944"
         class="cls-8"
         d="M1752,1464h122v51H1752v-51Zm2,2h118v47H1754v-47Zm-2,20.99h121v1.99H1752v-1.99Zm68,0h2V1515h-2v-28.01Z"
         transform="translate(-1161 -1345)" />
      <text
         id="p7"
         data-name="0.000"
         class="cls-9"
         transform="translate(609.298 160.81) scale(1.004 0.962)"
         inkscape:label="#_0.000-13">0.000</text>
      <text
         id="MPa-3"
         data-name="MPa"
         class="cls-10"
         transform="translate(671.849 160.557) scale(1.004 0.962)">MPa</text>
      <text
         id="_404_Ê≥µÂá∫Âè£Ê∞¥Âéã"
         data-name="404#Ê≥µÂá∫Âè£Ê∞¥Âéã"
         class="cls-11"
         transform="translate(602.621 136.521)">404#Ê≥µÂá∫Âè£Ê∞¥Âéã</text>
    </g>
    <g
       id="ÁªÑ_853-14"
       data-name="ÁªÑ 853">
      <path
         id="Áü©ÂΩ¢_4944-14"
         data-name="Áü©ÂΩ¢ 4944"
         class="cls-8"
         d="M1965,1444h122v51H1965v-51Zm2,2h118v47H1967v-47Zm-2,21h121v2H1965v-2Zm68,0h2v28h-2v-28Z"
         transform="translate(-1161 -1345)" />
      <text
         id="p9"
         data-name="0.000"
         class="cls-9"
         transform="translate(822.296 140.811) scale(1.004 0.962)"
         inkscape:label="#_0.000-14">0.000</text>
      <text
         id="MPa-4"
         data-name="MPa"
         class="cls-10"
         transform="translate(884.847 140.557) scale(1.004 0.962)">MPa</text>
      <text
         id="_405_Ê≥µÂá∫Âè£Ê∞¥Âéã"
         data-name="405#Ê≥µÂá∫Âè£Ê∞¥Âéã"
         class="cls-11"
         transform="translate(815.622 116.52)">405#Ê≥µÂá∫Âè£Ê∞¥Âéã</text>
    </g>
    <g
       id="ÁªÑ_853-15"
       data-name="ÁªÑ 853">
      <path
         id="Áü©ÂΩ¢_4944-15"
         data-name="Áü©ÂΩ¢ 4944"
         class="cls-8"
         d="M2276,1527h122v51H2276v-51Zm2,2h118v47H2278v-47Zm-2,21h121v2H2276v-2Zm68,0h2v28h-2v-28Z"
         transform="translate(-1161 -1345)" />
      <text
         id="p16"
         data-name="0.000"
         class="cls-9"
         transform="translate(1133.297 223.81) scale(1.004 0.962)"
         inkscape:label="#_0.000-15">0.000</text>
      <text
         id="MPa-5"
         data-name="MPa"
         class="cls-10"
         transform="translate(1195.849 223.555) scale(1.004 0.962)">MPa</text>
      <text
         id="_406_Ê≥µÂá∫Âè£Ê∞¥Âéã"
         data-name="406#Ê≥µÂá∫Âè£Ê∞¥Âéã"
         class="cls-11"
         transform="translate(1126.62 199.519)">406#Ê≥µÂá∫Âè£Ê∞¥Âéã</text>
    </g>
    <g
       id="ÁªÑ_853-16"
       data-name="ÁªÑ 853">
      <path
         id="Áü©ÂΩ¢_4944-16"
         data-name="Áü©ÂΩ¢ 4944"
         class="cls-8"
         d="M2278,1397h122v51H2278v-51Zm2,2h118v47H2280v-47Zm-2,21.03h121v2H2278v-2Zm68,0h2V1448h-2v-27.97Z"
         transform="translate(-1161 -1345)" />
      <text
         id="p14"
         data-name="0.000"
         class="cls-9"
         transform="translate(1135.296 93.823) scale(1.004 0.962)"
         inkscape:label="#_0.000-16">0.000</text>
      <text
         id="MPa-6"
         data-name="MPa"
         class="cls-10"
         transform="translate(1197.848 93.568) scale(1.004 0.962)">MPa</text>
      <text
         id="ÂõõÂπ≤Á∫øÂá∫Âè£Ê∞¥Âéã"
         class="cls-11"
         transform="translate(1130.621 69.532)">ÂõõÂπ≤Á∫øÂá∫Âè£Ê∞¥Âéã</text>
    </g>
    <g
       id="ÁªÑ_853-17"
       data-name="ÁªÑ 853">
      <path
         id="Áü©ÂΩ¢_4944-17"
         data-name="Áü©ÂΩ¢ 4944"
         class="cls-8"
         d="M2278,1455h122v51H2278v-51Zm2,2h118v47H2280v-47Zm-2,20.99h121v1.99H2278v-1.99Zm68,0h2V1506h-2v-28.01Z"
         transform="translate(-1161 -1345)" />
      <text
         id="p15"
         data-name="0.000"
         class="cls-9"
         transform="translate(1135.296 151.802) scale(1.004 0.962)"
         inkscape:label="#_0.000-17">0.000</text>
      <text
         id="m-2"
         data-name="m"
         class="cls-10"
         transform="translate(1203.847 151.55) scale(1.004 0.962)">m</text>
      <text
         id="ÈòÄÈó®ÂÆ§ÈõÜÊ∞¥ÂùëÊ∂≤‰Ωç"
         class="cls-11"
         transform="translate(1123.621 127.514)">ÈòÄÈó®ÂÆ§ÈõÜÊ∞¥ÂùëÊ∂≤‰Ωç</text>
    </g>
    <text
       id="Âê∏Ê∞¥‰∫ï"
       class="cls-12"
       transform="translate(603.092 576.232) scale(1.008 1.003)">Âê∏Ê∞¥‰∫ï</text>
    <text
       id="p6"
       data-name="0.00 m"
       class="cls-12"
       transform="matrix(1.008,0,0,1.003,603.092,541.141)"
       style="font-size:18px;font-family:'PingFang SC';fill:#ffffff"
       inkscape:label="#_0.00_m">0.00</text>
    <text
       style="font-size:12.06596279px;font-family:'PingFang SC';fill:#ffffff;stroke-width:1.00549686"
       y="540.2832"
       x="654.9585"
       id="_0.00_m-7"
       data-name="0.00 m"
       class="cls-12"
       transform="scale(1.0024894,0.99751678)">
      <tspan
         style="font-style:normal;font-variant:normal;font-weight:normal;font-stretch:normal;font-size:16px;font-family:'PingFang SC';-inkscape-font-specification:'PingFang SC, Normal';font-variant-ligatures:normal;font-variant-caps:normal;font-variant-numeric:normal;font-feature-settings:normal;text-align:start;writing-mode:lr-tb;text-anchor:start"
         id="tspan205">m</tspan>
    </text>
  </g>
  <text
     style="font-size:12.06596279px;font-family:'PingFang SC';fill:#ffffff;stroke-width:1.00549686"
     y="944.59863"
     x="1040.7372"
     id="_0.00_m-3"
     data-name="0.00 m"
     class="cls-12"
     transform="scale(1.0024894,0.99751678)">0.00 m</text>
</svg>
