<?xml version="1.0" encoding="UTF-8" standalone="no"?>
<svg
   xmlns:x="adobe:ns:meta/"
   xmlns:dc="http://purl.org/dc/elements/1.1/"
   xmlns:cc="http://creativecommons.org/ns#"
   xmlns:rdf="http://www.w3.org/1999/02/22-rdf-syntax-ns#"
   xmlns:svg="http://www.w3.org/2000/svg"
   xmlns="http://www.w3.org/2000/svg"
   xmlns:sodipodi="http://sodipodi.sourceforge.net/DTD/sodipodi-0.dtd"
   xmlns:inkscape="http://www.inkscape.org/namespaces/inkscape"
   id="_4Ê≥µÁ´ôÁ®ÄÊ≤πÁ´ôÁõëËßÜ"
   data-name="4Ê≥µÁ´ôÁ®ÄÊ≤πÁ´ôÁõëËßÜ"
   width="1251"
   height="345"
   viewBox="0 0 1251 345"
   version="1.1"
   sodipodi:docname="4Ê≥µÁ´ôÁ®ÄÊ≤πÁ´ôÁõëËßÜ.svg"
   inkscape:version="0.92.2 (5c3e80d, 2017-08-06)">
  <sodipodi:namedview
     pagecolor="#ffffff"
     bordercolor="#666666"
     borderopacity="1"
     objecttolerance="10"
     gridtolerance="10"
     guidetolerance="10"
     inkscape:pageopacity="0"
     inkscape:pageshadow="2"
     inkscape:window-width="1842"
     inkscape:window-height="1051"
     id="namedview176"
     showgrid="false"
     inkscape:zoom="0.76258993"
     inkscape:cx="669.61061"
     inkscape:cy="21.921959"
     inkscape:window-x="-9"
     inkscape:window-y="-9"
     inkscape:window-maximized="1"
     inkscape:current-layer="ÁªÑ_844-9" />
  <metadata
     id="metadata2">
<?xpacket begin="ˇ" id="W5M0MpCehiHzreSzNTczkc9d"?>    <x:xmpmeta
       x:xmptk="Adobe XMP Core 5.6-c138 79.159824, 2016/09/14-01:09:01        ">
      <metadata>
        <rdf:RDF>
          <rdf:Description
             rdf:about="" />
          <cc:Work
             rdf:about="">
            <dc:format>image/svg+xml</dc:format>
            <dc:type
               rdf:resource="http://purl.org/dc/dcmitype/StillImage" />
          </cc:Work>
        </rdf:RDF>
      </metadata>
    </x:xmpmeta>
<?xpacket end="w"?>  </metadata>
  <defs
     id="defs72">
    <style
       id="style4">
      .cls-1 {
        fill: #14204e;
        opacity: 0.32;
      }

      .cls-2 {
        fill: #de5247;
      }

      .cls-3, .cls-6, .cls-7 {
        fill: #fcf7f7;
      }

      .cls-3, .cls-6, .cls-7, .cls-8 {
        fill-rule: evenodd;
      }

      .cls-3 {
        filter: url(#filter);
      }

      .cls-4 {
        font-size: 18px;
        fill: #fff;
        font-family: &quot;Microsoft YaHei&quot;;
      }

      .cls-5 {
        fill: #5085c6;
      }

      .cls-7 {
        filter: url(#filter-2);
      }

      .cls-8 {
        fill: #11ebc3;
        opacity: 0.37;
      }

      .cls-10, .cls-12, .cls-13, .cls-14, .cls-9 {
        fill: none;
      }

      .cls-9 {
        stroke: #0ff4c4;
        stroke-width: 2px;
      }

      .cls-10, .cls-12, .cls-13, .cls-14 {
        opacity: 0.72;
      }

      .cls-10 {
        filter: url(#filter-3);
      }

      .cls-11 {
        fill: #00e099;
        opacity: 0.7;
      }

      .cls-12 {
        filter: url(#filter-4);
      }

      .cls-13 {
        filter: url(#filter-5);
      }

      .cls-14 {
        filter: url(#filter-6);
      }
    </style>
    <filter
       id="filter"
       x="1161"
       y="1563"
       width="81"
       height="81"
       filterUnits="userSpaceOnUse">
      <feOffset
         result="offset"
         dy="3"
         in="SourceAlpha"
         id="feOffset6" />
      <feGaussianBlur
         result="blur"
         stdDeviation="4.899"
         id="feGaussianBlur8" />
      <feFlood
         result="flood"
         flood-color="#b21942"
         flood-opacity="0.35"
         id="feFlood10" />
      <feComposite
         result="composite"
         operator="in"
         in2="blur"
         id="feComposite12" />
      <feBlend
         result="blend"
         in="SourceGraphic"
         in2="composite"
         id="feBlend14" />
    </filter>
    <filter
       id="filter-2"
       x="1161"
       y="1693"
       width="81"
       height="81"
       filterUnits="userSpaceOnUse">
      <feOffset
         result="offset"
         dy="3"
         in="SourceAlpha"
         id="feOffset17" />
      <feGaussianBlur
         result="blur"
         stdDeviation="4.899"
         id="feGaussianBlur19" />
      <feFlood
         result="flood"
         flood-color="#b21942"
         flood-opacity="0.35"
         id="feFlood21" />
      <feComposite
         result="composite"
         operator="in"
         in2="blur"
         id="feComposite23" />
      <feBlend
         result="blend"
         in="SourceGraphic"
         in2="composite"
         id="feBlend25" />
    </filter>
    <filter
       id="filter-3"
       x="33"
       y="16"
       width="52"
       height="52"
       filterUnits="userSpaceOnUse">
      <feGaussianBlur
         result="blur"
         stdDeviation="9.667"
         in="SourceAlpha"
         id="feGaussianBlur28" />
      <feFlood
         result="flood"
         flood-color="#00e099"
         flood-opacity="0.68"
         id="feFlood30" />
      <feComposite
         result="composite-2"
         operator="out"
         in2="blur"
         id="feComposite32" />
      <feComposite
         result="composite"
         operator="in"
         in2="SourceAlpha"
         id="feComposite34" />
      <feBlend
         result="blend"
         in2="SourceGraphic"
         id="feBlend36" />
    </filter>
    <filter
       id="filter-4"
       x="347"
       y="16"
       width="52"
       height="52"
       filterUnits="userSpaceOnUse">
      <feGaussianBlur
         result="blur"
         stdDeviation="9.667"
         in="SourceAlpha"
         id="feGaussianBlur39" />
      <feFlood
         result="flood"
         flood-color="#00e099"
         flood-opacity="0.68"
         id="feFlood41" />
      <feComposite
         result="composite-2"
         operator="out"
         in2="blur"
         id="feComposite43" />
      <feComposite
         result="composite"
         operator="in"
         in2="SourceAlpha"
         id="feComposite45" />
      <feBlend
         result="blend"
         in2="SourceGraphic"
         id="feBlend47" />
    </filter>
    <filter
       id="filter-5"
       x="661"
       y="16"
       width="52"
       height="52"
       filterUnits="userSpaceOnUse">
      <feGaussianBlur
         result="blur"
         stdDeviation="9.667"
         in="SourceAlpha"
         id="feGaussianBlur50" />
      <feFlood
         result="flood"
         flood-color="#00e099"
         flood-opacity="0.68"
         id="feFlood52" />
      <feComposite
         result="composite-2"
         operator="out"
         in2="blur"
         id="feComposite54" />
      <feComposite
         result="composite"
         operator="in"
         in2="SourceAlpha"
         id="feComposite56" />
      <feBlend
         result="blend"
         in2="SourceGraphic"
         id="feBlend58" />
    </filter>
    <filter
       id="filter-6"
       x="979"
       y="16"
       width="52"
       height="52"
       filterUnits="userSpaceOnUse">
      <feGaussianBlur
         result="blur"
         stdDeviation="9.667"
         in="SourceAlpha"
         id="feGaussianBlur61" />
      <feFlood
         result="flood"
         flood-color="#00e099"
         flood-opacity="0.68"
         id="feFlood63" />
      <feComposite
         result="composite-2"
         operator="out"
         in2="blur"
         id="feComposite65" />
      <feComposite
         result="composite"
         operator="in"
         in2="SourceAlpha"
         id="feComposite67" />
      <feBlend
         result="blend"
         in2="SourceGraphic"
         id="feBlend69" />
    </filter>
  </defs>
  <g
     id="ÁªÑ_901"
     data-name="ÁªÑ 901">
    <g
       id="_1"
       data-name="1">
      <rect
         id="Áü©ÂΩ¢_4113_Êã∑Ë¥ù_3"
         data-name="Áü©ÂΩ¢ 4113 Êã∑Ë¥ù 3"
         class="cls-1"
         x="949.25"
         y="131"
         width="301.75"
         height="80"
         rx="4"
         ry="4" />
      <rect
         id="Áü©ÂΩ¢_4113_Êã∑Ë¥ù_4"
         data-name="Áü©ÂΩ¢ 4113 Êã∑Ë¥ù 4"
         class="cls-1"
         x="632.47"
         y="131"
         width="301.78"
         height="80"
         rx="4"
         ry="4" />
      <rect
         id="Áü©ÂΩ¢_4113_Êã∑Ë¥ù_5"
         data-name="Áü©ÂΩ¢ 4113 Êã∑Ë¥ù 5"
         class="cls-1"
         x="316.75"
         y="131"
         width="301.78"
         height="80"
         rx="4"
         ry="4" />
      <rect
         id="Áü©ÂΩ¢_4113_Êã∑Ë¥ù_6"
         data-name="Áü©ÂΩ¢ 4113 Êã∑Ë¥ù 6"
         class="cls-1"
         y="131"
         width="300"
         height="80"
         rx="4"
         ry="4" />
    </g>
    <g
       id="_1-2"
       data-name="1">
      <g
         id="ÁªÑ_844"
         data-name="ÁªÑ 844">
        <g
           id="s2"
           data-name="ÁªÑ 882"
           inkscape:label="#ÁªÑ_882">
          <circle
             id="Ê§≠ÂúÜ_782"
             data-name="Ê§≠ÂúÜ 782"
             class="cls-2"
             cx="60"
             cy="171"
             r="26" />
          <path
             id="Ê§≠ÂúÜ_798"
             data-name="Ê§≠ÂúÜ 798"
             class="cls-3"
             d="M1200.99,1615a15,15,0,1,1,15-15A15,15,0,0,1,1200.99,1615Zm0.5-6a2.5,2.5,0,1,0-2.49-2.5A2.5,2.5,0,0,0,1201.49,1609Zm1.26-18.01h-2.51a1.253,1.253,0,0,0-1.26,1.25l1.26,7.51a1.255,1.255,0,1,0,2.51,0l1.25-7.51A1.25,1.25,0,0,0,1202.75,1590.99Z"
             transform="translate(-1141 -1429)" />
        </g>
        <text
           id="_1_Á®ÄÊ≤πÁ´ôÂéãÂäõÈ´ò"
           data-name="1#Á®ÄÊ≤πÁ´ôÂéãÂäõÈ´ò"
           class="cls-4"
           transform="translate(115.844 179.205)">1#Á®ÄÊ≤πÁ´ôÂéãÂäõÈ´ò</text>
      </g>
      <g
         id="ÁªÑ_844-2"
         data-name="ÁªÑ 844">
        <g
           id="s4"
           data-name="ÁªÑ 882"
           inkscape:label="#ÁªÑ_882-2">
          <circle
             id="Ê§≠ÂúÜ_782-2"
             data-name="Ê§≠ÂúÜ 782"
             class="cls-5"
             cx="373"
             cy="171"
             r="26" />
          <path
             id="Ê§≠ÂúÜ_798-2"
             data-name="Ê§≠ÂúÜ 798"
             class="cls-6"
             d="M1514,1615a15,15,0,1,1,14.99-15A15,15,0,0,1,1514,1615Zm0.5-6a2.5,2.5,0,1,0-2.5-2.5A2.5,2.5,0,0,0,1514.5,1609Zm1.25-18.01h-2.51a1.259,1.259,0,0,0-1.26,1.25l1.26,7.51a1.255,1.255,0,1,0,2.51,0l1.26-7.51A1.259,1.259,0,0,0,1515.75,1590.99Z"
             transform="translate(-1141 -1429)" />
        </g>
        <text
           id="_1_Á®ÄÊ≤πÁ´ôÂéãÂäõ‰Ωé"
           data-name="1#Á®ÄÊ≤πÁ´ôÂéãÂäõ‰Ωé"
           class="cls-4"
           transform="translate(429.845 179.205)">1#Á®ÄÊ≤πÁ´ôÂéãÂäõ‰Ωé</text>
      </g>
      <g
         id="ÁªÑ_844-3"
         data-name="ÁªÑ 844">
        <g
           id="s7"
           data-name="ÁªÑ 882"
           inkscape:label="#ÁªÑ_882-3">
          <circle
             id="Ê§≠ÂúÜ_782-3"
             data-name="Ê§≠ÂúÜ 782"
             class="cls-5"
             cx="687"
             cy="171"
             r="26" />
          <path
             id="Ê§≠ÂúÜ_798-3"
             data-name="Ê§≠ÂúÜ 798"
             class="cls-6"
             d="M1828,1615a15,15,0,1,1,15-15A15.005,15.005,0,0,1,1828,1615Zm0.5-6a2.5,2.5,0,1,0-2.5-2.5A2.5,2.5,0,0,0,1828.5,1609Zm1.25-18.01h-2.51a1.25,1.25,0,0,0-1.25,1.25l1.25,7.51a1.255,1.255,0,1,0,2.51,0l1.26-7.51A1.253,1.253,0,0,0,1829.75,1590.99Z"
             transform="translate(-1141 -1429)" />
        </g>
        <text
           id="_2_Á®ÄÊ≤πÁ´ôÂéãÂäõÈ´ò"
           data-name="2#Á®ÄÊ≤πÁ´ôÂéãÂäõÈ´ò"
           class="cls-4"
           transform="translate(743.852 179.205)">2#Á®ÄÊ≤πÁ´ôÂéãÂäõÈ´ò</text>
      </g>
      <g
         id="ÁªÑ_844-4"
         data-name="ÁªÑ 844">
        <g
           id="s10"
           data-name="ÁªÑ 882"
           inkscape:label="#ÁªÑ_882-4">
          <circle
             id="Ê§≠ÂúÜ_782-4"
             data-name="Ê§≠ÂúÜ 782"
             class="cls-5"
             cx="1005"
             cy="171"
             r="26" />
          <path
             id="Ê§≠ÂúÜ_798-4"
             data-name="Ê§≠ÂúÜ 798"
             class="cls-6"
             d="M2146,1615a15,15,0,1,1,14.99-15A15,15,0,0,1,2146,1615Zm0.5-6a2.5,2.5,0,1,0-2.5-2.5A2.5,2.5,0,0,0,2146.5,1609Zm1.25-18.01h-2.51a1.259,1.259,0,0,0-1.26,1.25l1.26,7.51a1.255,1.255,0,1,0,2.51,0l1.26-7.51A1.259,1.259,0,0,0,2147.75,1590.99Z"
             transform="translate(-1141 -1429)" />
        </g>
        <text
           id="_2_Á®ÄÊ≤πÁ´ôÂéãÂäõ‰Ωé"
           data-name="2#Á®ÄÊ≤πÁ´ôÂéãÂäõ‰Ωé"
           class="cls-4"
           transform="translate(1061.88 179.205)">2#Á®ÄÊ≤πÁ´ôÂéãÂäõ‰Ωé</text>
      </g>
    </g>
  </g>
  <g
     id="ÁªÑ_901-2"
     data-name="ÁªÑ 901">
    <g
       id="_1-3"
       data-name="1">
      <rect
         id="Áü©ÂΩ¢_4113_Êã∑Ë¥ù_5-2"
         data-name="Áü©ÂΩ¢ 4113 Êã∑Ë¥ù 5"
         class="cls-1"
         x="316.75"
         y="261"
         width="301.78"
         height="80"
         rx="4"
         ry="4" />
      <rect
         id="Áü©ÂΩ¢_4113_Êã∑Ë¥ù_6-2"
         data-name="Áü©ÂΩ¢ 4113 Êã∑Ë¥ù 6"
         class="cls-1"
         y="261"
         width="300"
         height="80"
         rx="4"
         ry="4" />
    </g>
    <g
       id="_1-4"
       data-name="1">
      <g
         id="ÁªÑ_844-5"
         data-name="ÁªÑ 844">
        <g
           id="s5"
           data-name="ÁªÑ 882"
           inkscape:label="#ÁªÑ_882-5">
          <circle
             id="Ê§≠ÂúÜ_782-5"
             data-name="Ê§≠ÂúÜ 782"
             class="cls-2"
             cx="60"
             cy="301"
             r="26" />
          <path
             id="Ê§≠ÂúÜ_798-5"
             data-name="Ê§≠ÂúÜ 798"
             class="cls-7"
             d="M1200.99,1745a15,15,0,1,1,15-15A15,15,0,0,1,1200.99,1745Zm0.5-6a2.5,2.5,0,1,0-2.49-2.5A2.5,2.5,0,0,0,1201.49,1739Zm1.26-18.01h-2.51a1.253,1.253,0,0,0-1.26,1.25l1.26,7.51a1.255,1.255,0,1,0,2.51,0l1.25-7.51A1.25,1.25,0,0,0,1202.75,1720.99Z"
             transform="translate(-1141 -1429)" />
        </g>
        <text
           id="_1_Á®ÄÊ≤πÊ∂≤‰ΩçÊä•Ë≠¶"
           data-name="1#Á®ÄÊ≤πÊ∂≤‰ΩçÊä•Ë≠¶"
           class="cls-4"
           transform="translate(115.844 309.205)">1#Á®ÄÊ≤πÊ∂≤‰ΩçÊä•Ë≠¶</text>
      </g>
      <g
         id="ÁªÑ_844-6"
         data-name="ÁªÑ 844">
        <g
           id="s8"
           data-name="ÁªÑ 882"
           inkscape:label="#ÁªÑ_882-6">
          <circle
             id="Ê§≠ÂúÜ_782-6"
             data-name="Ê§≠ÂúÜ 782"
             class="cls-5"
             cx="373"
             cy="301"
             r="26" />
          <path
             id="Ê§≠ÂúÜ_798-6"
             data-name="Ê§≠ÂúÜ 798"
             class="cls-6"
             d="M1514,1745a15,15,0,1,1,14.99-15A15,15,0,0,1,1514,1745Zm0.5-6a2.5,2.5,0,1,0-2.5-2.5A2.5,2.5,0,0,0,1514.5,1739Zm1.25-18.01h-2.51a1.259,1.259,0,0,0-1.26,1.25l1.26,7.51a1.255,1.255,0,1,0,2.51,0l1.26-7.51A1.259,1.259,0,0,0,1515.75,1720.99Z"
             transform="translate(-1141 -1429)" />
        </g>
        <text
           id="_2_Á®ÄÊ≤πÁ´ôÊ∂≤‰ΩçÊä•Ë≠¶"
           data-name="2#Á®ÄÊ≤πÁ´ôÊ∂≤‰ΩçÊä•Ë≠¶"
           class="cls-4"
           transform="translate(429.845 309.205)">2#Á®ÄÊ≤πÁ´ôÊ∂≤‰ΩçÊä•Ë≠¶</text>
      </g>
    </g>
  </g>
  <g
     id="ÁªÑ_904"
     data-name="ÁªÑ 904">
    <g
       id="_3"
       data-name="3">
      <rect
         id="Áü©ÂΩ¢_4113_Êã∑Ë¥ù_3-2"
         data-name="Áü©ÂΩ¢ 4113 Êã∑Ë¥ù 3"
         class="cls-1"
         x="949.25"
         width="301.75"
         height="81"
         rx="4"
         ry="4" />
      <rect
         id="Áü©ÂΩ¢_4113_Êã∑Ë¥ù_4-2"
         data-name="Áü©ÂΩ¢ 4113 Êã∑Ë¥ù 4"
         class="cls-1"
         x="632.47"
         width="301.78"
         height="81"
         rx="4"
         ry="4" />
      <rect
         id="Áü©ÂΩ¢_4113_Êã∑Ë¥ù_5-3"
         data-name="Áü©ÂΩ¢ 4113 Êã∑Ë¥ù 5"
         class="cls-1"
         x="316.75"
         width="301.78"
         height="81"
         rx="4"
         ry="4" />
      <rect
         id="Áü©ÂΩ¢_4113_Êã∑Ë¥ù_6-3"
         data-name="Áü©ÂΩ¢ 4113 Êã∑Ë¥ù 6"
         class="cls-1"
         width="301.75"
         height="81"
         rx="4"
         ry="4" />
    </g>
    <g
       id="_3-2"
       data-name="3">
      <g
         id="ÁªÑ_844-7"
         data-name="ÁªÑ 844">
        <g
           id="s1"
           inkscape:label="#icon">
          <g
             id="ÁªÑ_903"
             data-name="ÁªÑ 903">
            <path
               id="Ê§≠ÂúÜ_6835_Êã∑Ë¥ù_7"
               data-name="Ê§≠ÂúÜ 6835 Êã∑Ë¥ù 7"
               class="cls-8"
               d="M1199.55,1471c-2.52-4.31-.44-10.15,4.66-13.04s11.28-1.76,13.81,2.54Z"
               transform="translate(-1141 -1429)" />
            <path
               id="Ê§≠ÂúÜ_6835_Êã∑Ë¥ù_8"
               data-name="Ê§≠ÂúÜ 6835 Êã∑Ë¥ù 8"
               class="cls-8"
               d="M1199.55,1471c2.53-4.3,8.71-5.44,13.81-2.54s7.18,8.73,4.66,13.04Z"
               transform="translate(-1141 -1429)" />
            <path
               id="Ê§≠ÂúÜ_6835_Êã∑Ë¥ù_9"
               data-name="Ê§≠ÂúÜ 6835 Êã∑Ë¥ù 9"
               class="cls-8"
               d="M1199.55,1471.01c5.05,0,9.14,4.7,9.14,10.49s-4.09,10.49-9.14,10.49v-20.98Z"
               transform="translate(-1141 -1429)" />
            <path
               id="Ê§≠ÂúÜ_6835_Êã∑Ë¥ù_10"
               data-name="Ê§≠ÂúÜ 6835 Êã∑Ë¥ù 10"
               class="cls-8"
               d="M1199.54,1471c2.52,4.31.44,10.15-4.66,13.04s-11.28,1.76-13.8-2.54Z"
               transform="translate(-1141 -1429)" />
            <path
               id="Ê§≠ÂúÜ_6835_Êã∑Ë¥ù_11"
               data-name="Ê§≠ÂúÜ 6835 Êã∑Ë¥ù 11"
               class="cls-8"
               d="M1199.54,1471c-2.53,4.3-8.71,5.44-13.8,2.54s-7.19-8.73-4.66-13.04Z"
               transform="translate(-1141 -1429)" />
            <path
               id="Ê§≠ÂúÜ_6835_Êã∑Ë¥ù_12"
               data-name="Ê§≠ÂúÜ 6835 Êã∑Ë¥ù 12"
               class="cls-8"
               d="M1199.55,1470.99c-5.05,0-9.15-4.7-9.15-10.49s4.1-10.49,9.15-10.49v20.98Z"
               transform="translate(-1141 -1429)" />
          </g>
          <circle
             id="Ê§≠ÂúÜ_782-7"
             data-name="Ê§≠ÂúÜ 782"
             class="cls-9"
             cx="59"
             cy="42"
             r="26" />
          <circle
             id="Ê§≠ÂúÜ_782_Êã∑Ë¥ù"
             data-name="Ê§≠ÂúÜ 782 Êã∑Ë¥ù"
             class="cls-10"
             cx="59"
             cy="42"
             r="26" />
          <circle
             id="Ê§≠ÂúÜ_782_Êã∑Ë¥ù_2"
             data-name="Ê§≠ÂúÜ 782 Êã∑Ë¥ù 2"
             class="cls-11"
             cx="59"
             cy="42"
             r="11" />
        </g>
        <text
           id="‰∏ú1_Á®ÄÊ≤πÊ≥µËøêË°å"
           data-name="‰∏ú1#Á®ÄÊ≤πÊ≥µËøêË°å"
           class="cls-4"
           transform="translate(117.436 48.206)">‰∏ú1#Á®ÄÊ≤πÊ≥µËøêË°å</text>
      </g>
      <g
         id="ÁªÑ_844-8"
         data-name="ÁªÑ 844">
        <g
           id="s3"
           data-name="icon"
           inkscape:label="#icon-2">
          <g
             id="ÁªÑ_903-2"
             data-name="ÁªÑ 903">
            <path
               id="Ê§≠ÂúÜ_6835_Êã∑Ë¥ù_7-2"
               data-name="Ê§≠ÂúÜ 6835 Êã∑Ë¥ù 7"
               class="cls-8"
               d="M1513.55,1471c-2.52-4.31-.44-10.15,4.66-13.04s11.28-1.76,13.81,2.54Z"
               transform="translate(-1141 -1429)" />
            <path
               id="Ê§≠ÂúÜ_6835_Êã∑Ë¥ù_8-2"
               data-name="Ê§≠ÂúÜ 6835 Êã∑Ë¥ù 8"
               class="cls-8"
               d="M1513.55,1471c2.53-4.3,8.71-5.44,13.81-2.54s7.18,8.73,4.66,13.04Z"
               transform="translate(-1141 -1429)" />
            <path
               id="Ê§≠ÂúÜ_6835_Êã∑Ë¥ù_9-2"
               data-name="Ê§≠ÂúÜ 6835 Êã∑Ë¥ù 9"
               class="cls-8"
               d="M1513.55,1471.01c5.05,0,9.14,4.7,9.14,10.49s-4.09,10.49-9.14,10.49v-20.98Z"
               transform="translate(-1141 -1429)" />
            <path
               id="Ê§≠ÂúÜ_6835_Êã∑Ë¥ù_10-2"
               data-name="Ê§≠ÂúÜ 6835 Êã∑Ë¥ù 10"
               class="cls-8"
               d="M1513.54,1471c2.52,4.31.44,10.15-4.66,13.04s-11.28,1.76-13.8-2.54Z"
               transform="translate(-1141 -1429)" />
            <path
               id="Ê§≠ÂúÜ_6835_Êã∑Ë¥ù_11-2"
               data-name="Ê§≠ÂúÜ 6835 Êã∑Ë¥ù 11"
               class="cls-8"
               d="M1513.54,1471c-2.53,4.3-8.71,5.44-13.8,2.54s-7.19-8.73-4.66-13.04Z"
               transform="translate(-1141 -1429)" />
            <path
               id="Ê§≠ÂúÜ_6835_Êã∑Ë¥ù_12-2"
               data-name="Ê§≠ÂúÜ 6835 Êã∑Ë¥ù 12"
               class="cls-8"
               d="M1513.55,1470.99c-5.05,0-9.15-4.7-9.15-10.49s4.1-10.49,9.15-10.49v20.98Z"
               transform="translate(-1141 -1429)" />
          </g>
          <circle
             id="Ê§≠ÂúÜ_782-8"
             data-name="Ê§≠ÂúÜ 782"
             class="cls-9"
             cx="373"
             cy="42"
             r="26" />
          <circle
             id="Ê§≠ÂúÜ_782_Êã∑Ë¥ù-2"
             data-name="Ê§≠ÂúÜ 782 Êã∑Ë¥ù"
             class="cls-12"
             cx="373"
             cy="42"
             r="26" />
          <circle
             id="Ê§≠ÂúÜ_782_Êã∑Ë¥ù_2-2"
             data-name="Ê§≠ÂúÜ 782 Êã∑Ë¥ù 2"
             class="cls-11"
             cx="373"
             cy="42"
             r="11" />
        </g>
        <text
           id="‰∏ú2_Á®ÄÊ≤πÊ≥µËøêË°å"
           data-name="‰∏ú2#Á®ÄÊ≤πÊ≥µËøêË°å"
           class="cls-4"
           transform="translate(431.426 51.204)">‰∏ú2#Á®ÄÊ≤πÊ≥µËøêË°å</text>
      </g>
      <g
         id="ÁªÑ_844-9"
         data-name="ÁªÑ 844">
        <g
           id="s6"
           data-name="icon"
           inkscape:label="#icon-3">
          <g
             id="ÁªÑ_903-3"
             data-name="ÁªÑ 903">
            <path
               id="Ê§≠ÂúÜ_6835_Êã∑Ë¥ù_7-3"
               data-name="Ê§≠ÂúÜ 6835 Êã∑Ë¥ù 7"
               class="cls-8"
               d="M1827.55,1471c-2.52-4.31-.43-10.15,4.66-13.04s11.28-1.76,13.81,2.54Z"
               transform="translate(-1141 -1429)" />
            <path
               id="Ê§≠ÂúÜ_6835_Êã∑Ë¥ù_8-3"
               data-name="Ê§≠ÂúÜ 6835 Êã∑Ë¥ù 8"
               class="cls-8"
               d="M1827.55,1471c2.53-4.3,8.71-5.44,13.81-2.54s7.18,8.73,4.66,13.04Z"
               transform="translate(-1141 -1429)" />
            <path
               id="Ê§≠ÂúÜ_6835_Êã∑Ë¥ù_9-3"
               data-name="Ê§≠ÂúÜ 6835 Êã∑Ë¥ù 9"
               class="cls-8"
               d="M1827.55,1471.01c5.05,0,9.14,4.7,9.14,10.49s-4.09,10.49-9.14,10.49v-20.98Z"
               transform="translate(-1141 -1429)" />
            <path
               id="Ê§≠ÂúÜ_6835_Êã∑Ë¥ù_10-3"
               data-name="Ê§≠ÂúÜ 6835 Êã∑Ë¥ù 10"
               class="cls-8"
               d="M1827.54,1471c2.52,4.31.44,10.15-4.66,13.04s-11.28,1.76-13.8-2.54Z"
               transform="translate(-1141 -1429)" />
            <path
               id="Ê§≠ÂúÜ_6835_Êã∑Ë¥ù_11-3"
               data-name="Ê§≠ÂúÜ 6835 Êã∑Ë¥ù 11"
               class="cls-8"
               d="M1827.54,1471c-2.53,4.3-8.7,5.44-13.8,2.54s-7.19-8.73-4.66-13.04Z"
               transform="translate(-1141 -1429)" />
            <path
               id="Ê§≠ÂúÜ_6835_Êã∑Ë¥ù_12-3"
               data-name="Ê§≠ÂúÜ 6835 Êã∑Ë¥ù 12"
               class="cls-8"
               d="M1827.55,1470.99c-5.05,0-9.15-4.7-9.15-10.49s4.1-10.49,9.15-10.49v20.98Z"
               transform="translate(-1141 -1429)" />
          </g>
          <circle
             id="Ê§≠ÂúÜ_782-9"
             data-name="Ê§≠ÂúÜ 782"
             class="cls-9"
             cx="687"
             cy="42"
             r="26" />
          <circle
             id="Ê§≠ÂúÜ_782_Êã∑Ë¥ù-3"
             data-name="Ê§≠ÂúÜ 782 Êã∑Ë¥ù"
             class="cls-13"
             cx="687"
             cy="42"
             r="26" />
          <circle
             id="Ê§≠ÂúÜ_782_Êã∑Ë¥ù_2-3"
             data-name="Ê§≠ÂúÜ 782 Êã∑Ë¥ù 2"
             class="cls-11"
             cx="687"
             cy="42"
             r="11" />
        </g>
        <text
           id="Ë•ø1_Á®ÄÊ≤πÊ≥µËøêË°å"
           data-name="Ë•ø1#Á®ÄÊ≤πÊ≥µËøêË°å"
           class="cls-4"
           transform="translate(745.436 51.204)">Ë•ø1#Á®ÄÊ≤πÊ≥µËøêË°å</text>
      </g>
      <g
         id="ÁªÑ_844-10"
         data-name="ÁªÑ 844">
        <g
           id="s9"
           data-name="icon"
           inkscape:label="#icon-4">
          <g
             id="ÁªÑ_903-4"
             data-name="ÁªÑ 903">
            <path
               id="Ê§≠ÂúÜ_6835_Êã∑Ë¥ù_7-4"
               data-name="Ê§≠ÂúÜ 6835 Êã∑Ë¥ù 7"
               class="cls-8"
               d="M2145.55,1471c-2.52-4.31-.44-10.15,4.66-13.04s11.28-1.76,13.81,2.54Z"
               transform="translate(-1141 -1429)" />
            <path
               id="Ê§≠ÂúÜ_6835_Êã∑Ë¥ù_8-4"
               data-name="Ê§≠ÂúÜ 6835 Êã∑Ë¥ù 8"
               class="cls-8"
               d="M2145.55,1471c2.53-4.3,8.71-5.44,13.81-2.54s7.18,8.73,4.66,13.04Z"
               transform="translate(-1141 -1429)" />
            <path
               id="Ê§≠ÂúÜ_6835_Êã∑Ë¥ù_9-4"
               data-name="Ê§≠ÂúÜ 6835 Êã∑Ë¥ù 9"
               class="cls-8"
               d="M2145.55,1471.01c5.05,0,9.14,4.7,9.14,10.49s-4.09,10.49-9.14,10.49v-20.98Z"
               transform="translate(-1141 -1429)" />
            <path
               id="Ê§≠ÂúÜ_6835_Êã∑Ë¥ù_10-4"
               data-name="Ê§≠ÂúÜ 6835 Êã∑Ë¥ù 10"
               class="cls-8"
               d="M2145.54,1471c2.52,4.31.44,10.15-4.66,13.04s-11.28,1.76-13.8-2.54Z"
               transform="translate(-1141 -1429)" />
            <path
               id="Ê§≠ÂúÜ_6835_Êã∑Ë¥ù_11-4"
               data-name="Ê§≠ÂúÜ 6835 Êã∑Ë¥ù 11"
               class="cls-8"
               d="M2145.54,1471c-2.53,4.3-8.71,5.44-13.8,2.54s-7.19-8.73-4.66-13.04Z"
               transform="translate(-1141 -1429)" />
            <path
               id="Ê§≠ÂúÜ_6835_Êã∑Ë¥ù_12-4"
               data-name="Ê§≠ÂúÜ 6835 Êã∑Ë¥ù 12"
               class="cls-8"
               d="M2145.55,1470.99c-5.05,0-9.15-4.7-9.15-10.49s4.1-10.49,9.15-10.49v20.98Z"
               transform="translate(-1141 -1429)" />
          </g>
          <circle
             id="Ê§≠ÂúÜ_782-10"
             data-name="Ê§≠ÂúÜ 782"
             class="cls-9"
             cx="1005"
             cy="42"
             r="26" />
          <circle
             id="Ê§≠ÂúÜ_782_Êã∑Ë¥ù-4"
             data-name="Ê§≠ÂúÜ 782 Êã∑Ë¥ù"
             class="cls-14"
             cx="1005"
             cy="42"
             r="26" />
          <circle
             id="Ê§≠ÂúÜ_782_Êã∑Ë¥ù_2-4"
             data-name="Ê§≠ÂúÜ 782 Êã∑Ë¥ù 2"
             class="cls-11"
             cx="1005"
             cy="42"
             r="11" />
        </g>
        <text
           id="Ë•ø2_Á®ÄÊ≤πÊ≥µËøêË°å"
           data-name="Ë•ø2#Á®ÄÊ≤πÊ≥µËøêË°å"
           class="cls-4"
           transform="translate(1061.427 51.204)">Ë•ø2#Á®ÄÊ≤πÊ≥µËøêË°å</text>
      </g>
    </g>
  </g>
</svg>
