<?xml version="1.0" encoding="UTF-8" standalone="no"?>
<svg
   xmlns:dc="http://purl.org/dc/elements/1.1/"
   xmlns:cc="http://creativecommons.org/ns#"
   xmlns:rdf="http://www.w3.org/1999/02/22-rdf-syntax-ns#"
   xmlns:svg="http://www.w3.org/2000/svg"
   xmlns="http://www.w3.org/2000/svg"
   xmlns:sodipodi="http://sodipodi.sourceforge.net/DTD/sodipodi-0.dtd"
   xmlns:inkscape="http://www.inkscape.org/namespaces/inkscape"
   id="组_915"
   data-name="组 915"
   width="172"
   height="176"
   viewBox="0 0 172 176"
   version="1.1"
   sodipodi:docname="dunshuinenghao.svg"
   inkscape:version="0.92.2 (5c3e80d, 2017-08-06)">
  <metadata
     id="metadata1472">
    <rdf:RDF>
      <cc:Work
         rdf:about="">
        <dc:format>image/svg+xml</dc:format>
        <dc:type
           rdf:resource="http://purl.org/dc/dcmitype/StillImage" />
      </cc:Work>
    </rdf:RDF>
  </metadata>
  <sodipodi:namedview
     pagecolor="#ffffff"
     bordercolor="#666666"
     borderopacity="1"
     objecttolerance="10"
     gridtolerance="10"
     guidetolerance="10"
     inkscape:pageopacity="0"
     inkscape:pageshadow="2"
     inkscape:window-width="1920"
     inkscape:window-height="1012"
     id="namedview865"
     showgrid="false"
     inkscape:zoom="13.515382"
     inkscape:cx="14.022478"
     inkscape:cy="28.981128"
     inkscape:window-x="-8"
     inkscape:window-y="-8"
     inkscape:window-maximized="1"
     inkscape:current-layer="组_925" />
  <defs
     id="defs845">
    <style
       id="style843">
      .cls-1, .cls-8 {
        fill: #a3cff6;
      }

      .cls-1, .cls-12, .cls-3, .cls-5, .cls-6, .cls-9 {
        fill-rule: evenodd;
      }

      .cls-12 {
        fill: #2b71ce;
      }

      .cls-3 {
        fill: #2c8cf9;
        opacity: 0.57;
      }

      .cls-4, .cls-8 {
        font-size: 14px;
      }

      .cls-4, .cls-7 {
        fill: #f7fafd;
        font-family: &quot;PingFang SC&quot;;
      }

      .cls-5 {
        fill: #facc17;
      }

      .cls-6 {
        fill: #daae28;
      }

      .cls-7 {
        font-size: 24px;
      }

      .cls-9 {
        fill: #31d100;
      }
    </style>
  </defs>
  <path
     id="矩形_7171"
     data-name="矩形 7171"
     class="cls-1"
     d="M3494.98,557h2V719h-2V557Zm0,0h6v2h-6v-2Zm0,15.988h6.01v2h-6.01v-2Zm0,16.018h6.01v2h-6.01v-2Zm0,15.988h6.01v2h-6.01v-2Zm0,16.019h6.01v2h-6.01v-2Zm0,15.987h6v2h-6v-2Zm0,15.987h6.01v2h-6.01v-2Zm0,16.019h6.01v2h-6.01v-2Zm0,15.988h6.01v2h-6.01v-2Zm0,16.018h6.01v2h-6.01v-2Zm0,15.988h6v2h-6v-2Z"
     transform="translate(-3437 -557)" />
  <g
     inkscape:label="#组_917"
     data-name="组 917"
     id="g2">
    <path
       style="fill:#facc17;fill-rule:evenodd"
       inkscape:connector-curvature="0"
       transform="translate(-3437,-557)"
       d="m 3487.01,713.5 8,-5.517 v 11.035 z"
       class="cls-5"
       data-name="多边形 7140 拷贝"
       id="多边形_7140_拷贝" />
    <g
       data-name="组 924"
       id="组_924">
      <path
         style="fill:#daae28;fill-rule:evenodd"
         inkscape:connector-curvature="0"
         transform="translate(-3437,-557)"
         d="m 3469.54,700.544 13.47,13.441 -13.47,13.437 a 0.07,0.07 0 0 1 -0.01,0.008 c 0,0 0,0 -0.01,0.008 l -1.41,1.408 -0.07,-0.076 a 19.034,19.034 0 1 1 0.75,-28.9 l 0.03,-0.035 0.71,0.7 v 0 c 0,0 0.01,0.007 0.01,0.009 z"
         class="cls-6"
         data-name="矩形 7175 拷贝"
         id="矩形_7175_拷贝" />
         <text
            style="font-style:normal;font-variant:normal;font-weight:normal;font-stretch:normal;font-size:10.66666698px;font-family:'PingFang SC';-inkscape-font-specification:'PingFang SC, Normal';font-variant-ligatures:normal;font-variant-caps:normal;font-variant-numeric:normal;font-feature-settings:normal;text-align:start;writing-mode:lr-tb;text-anchor:start;fill:#f7fafd"
            class="cls-4"
            id="p3"
            x="8.8343086"
            y="153.95775"
            inkscape:label="#基准-1">0.38
         </text>
      <text
         style="font-style:normal;font-variant:normal;font-weight:normal;font-stretch:normal;font-size:10.66666698px;font-family:'PingFang SC';-inkscape-font-specification:'PingFang SC, Normal';font-variant-ligatures:normal;font-variant-caps:normal;font-variant-numeric:normal;font-feature-settings:normal;text-align:start;writing-mode:lr-tb;text-anchor:start;fill:#f7fafd"
         class="cls-4"
         id="基准"
         x="8.7939692"
         y="167.9702">基准</text>
    </g>
  </g>
  <g
     inkscape:label="#g870"
     id="g1">
    <text
       inkscape:label="#_75_KWh_m3"
       id="p1"
       data-name="75 KWh/m3"
       class="cls-7"
       x="77.853996"
       y="145.048"
       style="font-size:24px;font-family:'PingFang SC';fill:#f7fafd">75 <tspan
   class="cls-8"
   id="tspan859"
   style="font-size:14px;fill:#a3cff6">KWh/m3</tspan>
</text>
    <path
       id="s1"
       data-name="多边形 7141"
       class="cls-9"
       d="m 3504,714 v -1 h 105 v 1 z m 1,-0.5 -9.99,5.491 V 708 Z"
       transform="translate(-3437,-557)"
       inkscape:connector-curvature="0"
       style="fill:#31d100;fill-rule:evenodd" />
  </g>
  <g
     data-name="组 916"
     id="g0"
     inkscape:label="#组_916"
     style="display:inline">
    <g
       data-name="组 925"
       id="组_925"
       style="display:inline">
      <path
         style="opacity:0.56999966;fill:#2c8cf9;fill-rule:evenodd"
         inkscape:connector-curvature="0"
         transform="translate(-3437,-557)"
         d="m 3469.54,700.544 13.47,13.441 -13.47,13.437 a 0.07,0.07 0 0 1 -0.01,0.008 c 0,0 0,0 -0.01,0.008 l -1.41,1.408 -0.07,-0.076 a 19.034,19.034 0 1 1 0.75,-28.9 l 0.03,-0.035 0.71,0.7 v 0 c 0,0 0.01,0.007 0.01,0.009 z"
         class="cls-3"
         data-name="矩形 7175"
         id="矩形_7175" />
      <text
         style="font-size:14px;font-family:'PingFang SC';fill:#f7fafd"
         class="cls-4"
         id="最优"
         x="9.1300869"
         y="167.15738">
        <tspan
           style="font-style:normal;font-variant:normal;font-weight:normal;font-stretch:normal;font-size:10.66666698px;font-family:'PingFang SC';-inkscape-font-specification:'PingFang SC, Normal';font-variant-ligatures:normal;font-variant-caps:normal;font-variant-numeric:normal;font-feature-settings:normal;text-align:start;writing-mode:lr-tb;text-anchor:start"
           id="tspan2017">最优</tspan>
      </text>
      <text
         style="font-style:normal;font-variant:normal;font-weight:normal;font-stretch:normal;font-size:10.66666698px;font-family:'PingFang SC';-inkscape-font-specification:'PingFang SC, Normal';font-variant-ligatures:normal;font-variant-caps:normal;font-variant-numeric:normal;font-feature-settings:normal;text-align:start;writing-mode:lr-tb;text-anchor:start;fill:#f7fafd"
         class="cls-4"
         id="p2"
         x="8.9035082"
         y="153.9138"
         inkscape:label="#最优-6">0.24
      </text>
    </g>
    <path
       inkscape:label="#多边形_7140"
       style="fill:#2b71ce;fill-rule:evenodd"
       inkscape:connector-curvature="0"
       transform="translate(-3437,-557)"
       d="m 3487.01,713.5 8,-5.518 v 11.035 z"
       class="cls-12"
       data-name="多边形 7140"
       id="s2" />
  </g>

</svg>
