<?xml version="1.0" encoding="UTF-8" standalone="no"?>
<svg
   xmlns:x="adobe:ns:meta/"
   xmlns:dc="http://purl.org/dc/elements/1.1/"
   xmlns:cc="http://creativecommons.org/ns#"
   xmlns:rdf="http://www.w3.org/1999/02/22-rdf-syntax-ns#"
   xmlns:svg="http://www.w3.org/2000/svg"
   xmlns="http://www.w3.org/2000/svg"
   xmlns:sodipodi="http://sodipodi.sourceforge.net/DTD/sodipodi-0.dtd"
   xmlns:inkscape="http://www.inkscape.org/namespaces/inkscape"
   id="ÈªÑÊ≤≥Ë∞ÉËäÇÊ∞¥Ê≥µÁ´ôÁõëÊéßÁ≥ªÁªü"
   width="903"
   height="575"
   viewBox="0 0 903 575"
   version="1.1"
   sodipodi:docname="ÈªÑÊ≤≥Ë∞ÉËäÇÊ∞¥Ê≥µÁ´ôÁõëÊéßÁ≥ªÁªü.svg"
   inkscape:version="0.92.2 (5c3e80d, 2017-08-06)">
  <sodipodi:namedview
     pagecolor="#ffffff"
     bordercolor="#666666"
     borderopacity="1"
     objecttolerance="10"
     gridtolerance="10"
     guidetolerance="10"
     inkscape:pageopacity="0"
     inkscape:pageshadow="2"
     inkscape:window-width="1920"
     inkscape:window-height="1001"
     id="namedview59"
     showgrid="false"
     inkscape:zoom="1.1608849"
     inkscape:cx="379.96805"
     inkscape:cy="321.02769"
     inkscape:window-x="-9"
     inkscape:window-y="-9"
     inkscape:window-maximized="1"
     inkscape:current-layer="ÁªÑ_891" />
  <metadata
     id="metadata2">
<?xpacket begin="ˇ" id="W5M0MpCehiHzreSzNTczkc9d"?>    <x:xmpmeta
       x:xmptk="Adobe XMP Core 5.6-c138 79.159824, 2016/09/14-01:09:01        ">
      <metadata>
        <rdf:RDF>
          <rdf:Description
             rdf:about="" />
          <cc:Work
             rdf:about="">
            <dc:format>image/svg+xml</dc:format>
            <dc:type
               rdf:resource="http://purl.org/dc/dcmitype/StillImage" />
          </cc:Work>
        </rdf:RDF>
      </metadata>
    </x:xmpmeta>
<?xpacket end="w"?>  </metadata>
  <defs
     id="defs6">
    <style
       id="style4">
      .cls-1 {
        fill: #facc17;
      }

      .cls-1, .cls-2, .cls-4, .cls-5, .cls-6, .cls-8 {
        fill-rule: evenodd;
      }

      .cls-2 {
        fill: #5b83e1;
      }

      .cls-3 {
        fill: #4786ff;
      }

      .cls-4 {
        fill: #2c8cf9;
      }

      .cls-5 {
        fill: #fa607e;
      }

      .cls-6 {
        fill: #f0f0f0;
      }

      .cls-7, .cls-9 {
        font-size: 14px;
      }

      .cls-10, .cls-11, .cls-7 {
        fill: #a3cff6;
      }

      .cls-10, .cls-11, .cls-12, .cls-7, .cls-9 {
        font-family: PingFang SC;
      }

      .cls-8 {
        fill: #5085c6;
      }

      .cls-9 {
        fill: #fefefe;
      }

      .cls-10 {
        font-size: 14.551px;
      }

      .cls-11 {
        font-size: 14.004px;
      }

      .cls-12 {
        font-size: 18px;
        fill: #fff;
      }
    </style>
  </defs>
  <g
     inkscape:groupmode="layer"
     id="layer2"
     inkscape:label="Layer 2">
    <rect
       style="fill:#000000;fill-opacity:1"
       id="rect63"
       width="9.7457628"
       height="12.182203"
       x="-250.95338"
       y="-109.63983" />
    <rect
       style="display:none;fill:#000000;fill-opacity:1"
       id="rect67"
       width="1037.9237"
       height="721.18634"
       x="-119.3856"
       y="-109.63983" />
    <rect
       style="fill:#000000;fill-opacity:1"
       id="rect70"
       width="0"
       height="34.110176"
       x="-70.656784"
       y="-112.07627" />
  </g>
  <g
     id="ÁªÑ_900"
     data-name="ÁªÑ 900">
    <g
       id="ÁªÑ_890"
       data-name="ÁªÑ 890">
      <g
         id="ÁªÑ_891"
         data-name="ÁªÑ 891">
        <path
           id="s3"
           data-name="Ê§≠ÂúÜ 4543"
           class="cls-1"
           d="M1583.01,1650.37a29.472,29.472,0,0,1,44.98,25.1c0,0.16-.01.33-0.01,0.5h0.01v45H1614v-20.4a29.491,29.491,0,0,1-44.95-23.6h-0.04v-45.01h14v18.41Zm0.5,25.1a15,15,0,1,0,14.99-15A15,15,0,0,0,1583.51,1675.47Z"
           transform="translate(-1346 -1378)"
           inkscape:label="#Ê§≠ÂúÜ_4543" />
        <path
           id="s4"
           data-name="Ê§≠ÂúÜ 4543 Êã∑Ë¥ù 20"
           class="cls-1"
           d="M1902.01,1650.37a29.472,29.472,0,0,1,44.98,25.1c0,0.16-.01.33-0.01,0.5h0.01v45H1933v-20.4a29.491,29.491,0,0,1-44.95-23.6h-0.04v-45.01h14v18.41Zm0.49,25.1a15,15,0,1,0,15-15A15.005,15.005,0,0,0,1902.5,1675.47Z"
           transform="translate(-1346 -1378)"
           inkscape:label="#Ê§≠ÂúÜ_4543_Êã∑Ë¥ù_20" />
      </g>
      <path
         id="Áü©ÂΩ¢_6535"
         data-name="Áü©ÂΩ¢ 6535"
         class="cls-2"
         d="M1574,1382.37h4v249.84h-4V1382.37Zm45,338.79h4v109.93h-4V1721.16Zm630-343.17v4l-903,.38v-3.66Zm-355,4.38h4v249.84h-4V1382.37Zm45,338.79h4v109.93h-4V1721.16Z"
         transform="translate(-1346 -1378)" />
      <path
         id="Áü©ÂΩ¢_6535-2"
         data-name="Áü©ÂΩ¢ 6535"
         class="cls-2"
         d="M1346,1829.08h872V1953H1346V1829.08Zm1.61,2h868.02V1951H1347.61V1831.08Z"
         transform="translate(-1346 -1378)" />
      <rect
         id="Áü©ÂΩ¢_6535_Êã∑Ë¥ù"
         data-name="Áü©ÂΩ¢ 6535 Êã∑Ë¥ù"
         class="cls-3"
         y="489.06"
         width="872"
         height="85.94" />
      <g
         id="ÁªÑ_892"
         data-name="ÁªÑ 892">
        <g
           id="s1"
           inkscape:label="#ÈòÄÈó®">
          <path
             id="Â§öËæπÂΩ¢_4635_Êã∑Ë¥ù"
             data-name="Â§öËæπÂΩ¢ 4635 Êã∑Ë¥ù"
             class="cls-4"
             d="M1593,1416.01h19v17.98h-19v-17.98Zm2.01,1.99h15.98v1.98h-15.98V1418Zm-9,6.86,7.07-8.87,0.92,1.15-7.07,8.87Zm0.91-.85,7.07,8.85-0.92,1.15-7.07-8.85ZM1575,1424h12v2h-12v-2Zm11-6.99h2V1433h-2v-15.99Zm9.01,4.99h15.98v1.98h-15.98V1422Zm0,4.01h15.98v1.97h-15.98v-1.97Zm0,4h15.98v1.97h-15.98v-1.97Z"
             transform="translate(-1346 -1378)" />
          <path
             id="Â§öËæπÂΩ¢_4635"
             data-name="Â§öËæπÂΩ¢ 4635"
             class="cls-5"
             d="M1576.02,1424.99l-7.01-12.01h14.02Z"
             transform="translate(-1346 -1378)" />
          <path
             id="Â§öËæπÂΩ¢_4635_Êã∑Ë¥ù_2"
             data-name="Â§öËæπÂΩ¢ 4635 Êã∑Ë¥ù 2"
             class="cls-5"
             d="M1576.03,1424l7,12.01h-14.01Z"
             transform="translate(-1346 -1378)" />
        </g>
        <g
           id="s2"
           data-name="ÈòÄÈó®"
           inkscape:label="#ÈòÄÈó®-2">
          <path
             id="Â§öËæπÂΩ¢_4635_Êã∑Ë¥ù-2"
             data-name="Â§öËæπÂΩ¢ 4635 Êã∑Ë¥ù"
             class="cls-4"
             d="M1913,1416.38h19v17.96h-19v-17.96Zm2.01,1.99h15.98v1.97h-15.98v-1.97Zm-9,6.84,7.07-8.85,0.92,1.15-7.07,8.85Zm0.91-.84,7.07,8.84-0.92,1.14-7.07-8.83Zm-11.92.01h12v1.96h-12v-1.96Zm11-7h2v15.96h-2v-15.96Zm9.01,4.99h15.98v1.97h-15.98v-1.97Zm0,3.99h15.98v1.97h-15.98v-1.97Zm0,4h15.98v1.97h-15.98v-1.97Z"
             transform="translate(-1346 -1378)" />
          <path
             id="Â§öËæπÂΩ¢_4635-2"
             data-name="Â§öËæπÂΩ¢ 4635"
             class="cls-5"
             d="M1896.02,1425.35l-7.01-11.99h14.02Z"
             transform="translate(-1346 -1378)" />
          <path
             id="Â§öËæπÂΩ¢_4635_Êã∑Ë¥ù_2-2"
             data-name="Â§öËæπÂΩ¢ 4635 Êã∑Ë¥ù 2"
             class="cls-5"
             d="M1896.02,1424.36l7.01,11.99h-14.01Z"
             transform="translate(-1346 -1378)" />
        </g>
      </g>
      <g
         id="ÁªÑ_893"
         data-name="ÁªÑ 893">
        <path
           id="Ë∞ÉËäÇÈòÄ_Êã∑Ë¥ù_7"
           data-name="Ë∞ÉËäÇÈòÄ Êã∑Ë¥ù 7"
           class="cls-6"
           d="M1572,1527h8v16.02h-8V1527Zm6,5.99h8v4.03h-8v-4.03Zm8-9.99h8v23.02h-8V1523Zm2,2h4v19.02h-4V1525Zm-1,6.99h6v2h-6v-2Zm0,4h6v2.03h-6v-2.03Z"
           transform="translate(-1346 -1378)" />
        <path
           id="Ë∞ÉËäÇÈòÄ_Êã∑Ë¥ù_9"
           data-name="Ë∞ÉËäÇÈòÄ Êã∑Ë¥ù 9"
           class="cls-6"
           d="M1892,1525h8v16.02h-8V1525Zm6,5.99h8v4h-8v-4Zm8-9.99h8v23.02h-8V1521Zm2,2h4v19.02h-4V1523Zm-1,6.99h6v2h-6v-2Zm0,4h6v2h-6v-2Z"
           transform="translate(-1346 -1378)" />
      </g>
      <g
         id="ÁªÑ_895"
         data-name="ÁªÑ 895">
        <g
           id="ÁªÑ_896"
           data-name="ÁªÑ 896">
          <text
             id="_1_v"
             data-name="1 v"
             class="cls-7"
             transform="translate(203.283 52.129) scale(1.002 0.994)">1 v</text>
          <text
             id="MOT3201"
             class="cls-7"
             transform="translate(156.562 248.754) scale(1.002 0.994)">MOT3201</text>
          <text
             id="MOT3202"
             class="cls-7"
             transform="translate(473.56 248.754) scale(1.002 0.994)">MOT3202</text>
        </g>
        <g
           id="ÁªÑ_896-2"
           data-name="ÁªÑ 896">
          <text
             id="_2_v"
             data-name="2 v"
             class="cls-7"
             transform="translate(516.283 52.129) scale(1.002 0.994)">2 v</text>
        </g>
      </g>
    </g>
    <g
       id="ÁªÑ_899"
       data-name="ÁªÑ 899">
      <g
         id="ÁªÑ_853"
         data-name="ÁªÑ 853">
        <path
           id="Áü©ÂΩ¢_4944"
           data-name="Áü©ÂΩ¢ 4944"
           class="cls-8"
           d="M2039,1707.16h-70v-50.97h122v50.97h-52Zm-68-2h66v-23.98h-66v23.98Zm118-46.97H1971v20.99h118v-20.99Zm0,22.99h-50v23.98h50v-23.98Z"
           transform="translate(-1346 -1378)" />
        <text
           id="p5"
           data-name="0.000"
           class="cls-9"
           transform="translate(641.297 319.976) scale(1.004 0.962)"
           inkscape:label="#_0.000">0.000</text>
        <text
           id="A"
           class="cls-10"
           transform="translate(710.849 319.724) scale(1.004 0.962)">A</text>
        <text
           id="_2ÁîµÊú∫ÁîµÊµÅ"
           data-name="2ÁîµÊú∫ÁîµÊµÅ"
           class="cls-11"
           transform="translate(650.621 295.703)">2ÁîµÊú∫ÁîµÊµÅ</text>
      </g>
      <g
         id="ÁªÑ_853-2"
         data-name="ÁªÑ 853">
        <path
           id="Áü©ÂΩ¢_4944-2"
           data-name="Áü©ÂΩ¢ 4944"
           class="cls-8"
           d="M1721,1707.16h-70v-50.97h122v50.97h-52Zm-68-2h66v-23.98h-66v23.98Zm118-46.97H1653v20.99h118v-20.99Zm0,22.99h-50v23.98h50v-23.98Z"
           transform="translate(-1346 -1378)" />
        <text
           id="p2"
           data-name="0.000"
           class="cls-9"
           transform="translate(323.298 319.976) scale(1.004 0.962)"
           inkscape:label="#_0.000-2">0.000</text>
        <text
           id="A-2"
           data-name="A"
           class="cls-10"
           transform="translate(392.847 319.724) scale(1.004 0.962)">A</text>
        <text
           id="_1ÁîµÊú∫ÁîµÊµÅ"
           data-name="1ÁîµÊú∫ÁîµÊµÅ"
           class="cls-11"
           transform="translate(332.622 295.703)">1ÁîµÊú∫ÁîµÊµÅ</text>
      </g>
      <g
         id="ÁªÑ_853-3"
         data-name="ÁªÑ 853">
        <path
           id="Áü©ÂΩ¢_4944-3"
           data-name="Áü©ÂΩ¢ 4944"
           class="cls-8"
           d="M1681,1560.26h-70v-50.97h122v50.97h-52Zm-68-2h66v-23.99h-66v23.99Zm118-46.97H1613v20.98h118v-20.98Zm0,22.98h-50v23.99h50v-23.99Z"
           transform="translate(-1346 -1378)" />
        <text
           id="p1"
           data-name="0.000"
           class="cls-9"
           transform="translate(283.298 173.075) scale(1.004 0.962)"
           inkscape:label="#_0.000-3">0.000</text>
        <text
           id="MPa"
           class="cls-10"
           transform="translate(345.849 172.821) scale(1.004 0.962)">MPa</text>
        <text
           id="_403_Ê≥µÂá∫Âè£Ê∞¥Âéã"
           data-name="403#Ê≥µÂá∫Âè£Ê∞¥Âéã"
           class="cls-11"
           transform="translate(276.621,148.801)"
           style="font-size:14.00399971px;font-family:'PingFang SC';fill:#a3cff6">1#Ê≥µÂá∫Âè£Ê∞¥Âéã</text>
      </g>
      <g
         id="ÁªÑ_853-4"
         data-name="ÁªÑ 853">
        <path
           id="Áü©ÂΩ¢_4944-4"
           data-name="Áü©ÂΩ¢ 4944"
           class="cls-8"
           d="M2002,1557.26h-70v-50.97h122v50.97h-52Zm-68-2h66v-23.98h-66v23.98Zm118-46.97H1934v20.99h118v-20.99Zm0,22.99h-50v23.98h50v-23.98Z"
           transform="translate(-1346 -1378)" />
        <text
           id="p4"
           data-name="0.000"
           class="cls-9"
           transform="translate(604.297 170.075) scale(1.004 0.962)"
           inkscape:label="#_0.000-4">0.000</text>
        <text
           id="MPa-2"
           data-name="MPa"
           class="cls-10"
           transform="translate(666.848 169.82) scale(1.004 0.962)">MPa</text>
        <text
           id="_404_Ê≥µÂá∫Âè£Ê∞¥Âéã"
           data-name="404#Ê≥µÂá∫Âè£Ê∞¥Âéã"
           class="cls-11"
           transform="translate(597.623,145.801)"
           style="font-size:14.00399971px;font-family:'PingFang SC';fill:#a3cff6">2#Ê≥µÂá∫Âè£Ê∞¥Âéã</text>
      </g>
      <text
         id="Âê∏Ê∞¥‰∫ï"
         class="cls-12"
         transform="translate(388.093 543.251) scale(1.008 1.002)">Âê∏Ê∞¥‰∫ï</text>
      <text
         id="p3"
         data-name="0.00 m"
         class="cls-12"
         transform="matrix(1.008,0,0,1.002,388.093,508.186)"
         style="font-size:18px;font-family:'PingFang SC';fill:#ffffff"
         inkscape:label="#_0.00_m">0.00</text>
    </g>
  </g>
  <g
     inkscape:groupmode="layer"
     id="layer1"
     inkscape:label="Layer 1" />
  <text
     y="508.6369"
     x="430.19281"
     id="_0.00_m-8"
     data-name="0.00 m"
     class="cls-12"
     transform="scale(1.0029895,0.99701941)"
     style="font-size:18.08992004px;font-family:'PingFang SC';fill:#ffffff;stroke-width:1.00499547">m</text>
</svg>
